<svg width="96" height="96" viewBox="0 0 96 96" fill="none" xmlns="http://www.w3.org/2000/svg">
<path d="M48.125 83.6888C56.4389 83.6888 63.1786 81.2817 63.1786 78.3125C63.2761 77.7625 63.9335 76.375 64.5 76H31.5C32.3 76.4 32.7143 77.875 33.0714 78.3125C33.0714 81.2817 39.8111 83.6888 48.125 83.6888Z" fill="#77BCD1"/>
<path fill-rule="evenodd" clip-rule="evenodd" d="M64.5 76C64.0221 76.3163 63.4796 77.3532 63.263 78C63.2228 78.1199 63.1939 78.2265 63.1786 78.3125C63.1786 81.2817 56.4389 83.6888 48.125 83.6888C39.8111 83.6888 33.0714 81.2817 33.0714 78.3125C33.0091 78.2362 32.9451 78.1283 32.8775 78C32.8177 77.8863 32.7551 77.7567 32.6886 77.6189C32.3999 77.0207 32.0368 76.2684 31.5 76H64.5ZM31.1241 78.9625C31.0761 78.8724 31.0321 78.7847 30.9938 78.707C30.9459 78.61 30.906 78.5271 30.8693 78.4509C30.8051 78.3177 30.7506 78.2046 30.6805 78.0708C30.5868 77.8921 30.5162 77.7793 30.466 77.7121C29.7279 77.2668 29.3527 76.3912 29.5535 75.5405C29.7666 74.6378 30.5725 74 31.5 74H64.5C65.3826 74 66.1608 74.5785 66.4151 75.4236C66.6579 76.2301 66.3687 77.0975 65.7021 77.5985C65.6937 77.6088 65.6833 77.622 65.6712 77.6382C65.6033 77.7292 65.5172 77.8652 65.4271 78.0338C65.3385 78.1994 65.262 78.3665 65.2068 78.5063C65.1898 78.5493 65.177 78.5843 65.1676 78.6114C65.0627 80.0278 64.2232 81.1419 63.2859 81.9333C62.2744 82.7874 60.9293 83.4665 59.4422 83.9976C56.4505 85.066 52.4491 85.6888 48.125 85.6888C43.8009 85.6888 39.7995 85.066 36.8078 83.9976C35.3207 83.4665 33.9756 82.7874 32.9641 81.9333C32.1057 81.2085 31.3293 80.213 31.1241 78.9625Z" fill="#65A6BA"/>
<path d="M64.9286 22.0469H31.0714V75.0999C31.0714 77.3506 38.6506 80.1752 48 80.1752C57.3494 80.1752 64.9286 77.3506 64.9286 75.0999V22.0469Z" fill="#E3283F"/>
<path fill-rule="evenodd" clip-rule="evenodd" d="M29.0714 22.0469C29.0714 20.9423 29.9668 20.0469 31.0714 20.0469H64.9286C66.0332 20.0469 66.9286 20.9423 66.9286 22.0469V75.0999C66.9286 75.9596 66.5665 76.6689 66.1689 77.1849C65.7712 77.701 65.2567 78.134 64.7213 78.4973C63.6495 79.2247 62.2146 79.8595 60.5839 80.3851C57.3 81.4436 52.8584 82.1752 48 82.1752C43.1416 82.1752 38.7 81.4436 35.4161 80.3851C33.7854 79.8595 32.3505 79.2247 31.2787 78.4973C30.7433 78.134 30.2288 77.701 29.8311 77.1849C29.4335 76.6689 29.0714 75.9596 29.0714 75.0999V22.0469ZM64.9286 22.0469V75.0999C64.9286 77.3506 57.3494 80.1752 48 80.1752C38.6506 80.1752 31.0714 77.3506 31.0714 75.0999V22.0469H64.9286Z" fill="#65A6BA"/>
<path d="M64.9286 75.0999V22.5239H55V78.8115C60.8565 78.1704 64.9286 76.7496 64.9286 75.0999Z" fill="#C61A2F"/>
<path d="M59.4097 74.8205C59.4097 75.833 58.5889 76.6539 57.5764 76.6539C56.5639 76.6539 55.743 75.833 55.743 74.8205C55.743 73.808 56.5639 72.9872 57.5764 72.9872C58.5889 72.9872 59.4097 73.808 59.4097 74.8205Z" fill="#AA0E21"/>
<path d="M63 72.4525C63 73.2118 62.3844 73.8275 61.625 73.8275C60.8656 73.8275 60.25 73.2118 60.25 72.4525C60.25 71.6931 60.8656 71.0775 61.625 71.0775C62.3844 71.0775 63 71.6931 63 72.4525Z" fill="#AA0E21"/>
<path d="M57.4236 69.7788C57.4236 70.5382 56.808 71.1538 56.0486 71.1538C55.2893 71.1538 54.6736 70.5382 54.6736 69.7788C54.6736 69.0194 55.2893 68.4038 56.0486 68.4038C56.808 68.4038 57.4236 69.0194 57.4236 69.7788Z" fill="#AA0E21"/>
<path d="M62.9236 63.3621C62.9236 64.1215 62.308 64.7371 61.5486 64.7371C60.7893 64.7371 60.1736 64.1215 60.1736 63.3621C60.1736 62.6027 60.7893 61.9871 61.5486 61.9871C62.308 61.9871 62.9236 62.6027 62.9236 63.3621Z" fill="#AA0E21"/>
<path d="M59.257 64.7372C59.257 65.2434 58.8466 65.6538 58.3403 65.6538C57.8341 65.6538 57.4236 65.2434 57.4236 64.7372C57.4236 64.2309 57.8341 63.8205 58.3403 63.8205C58.8466 63.8205 59.257 64.2309 59.257 64.7372Z" fill="#AA0E21"/>
<path d="M62.9236 59.2372C62.9236 59.7434 62.5132 60.1538 62.0069 60.1538C61.5007 60.1538 61.0903 59.7434 61.0903 59.2372C61.0903 58.7309 61.5007 58.3205 62.0069 58.3205C62.5132 58.3205 62.9236 58.7309 62.9236 59.2372Z" fill="#AA0E21"/>
<path d="M61.9305 67.8691C61.9305 68.6285 61.3149 69.2441 60.5555 69.2441C59.7962 69.2441 59.1805 68.6285 59.1805 67.8691C59.1805 67.1097 59.7962 66.4941 60.5555 66.4941C61.3149 66.4941 61.9305 67.1097 61.9305 67.8691Z" fill="#AA0E21"/>
<path d="M60.1736 59.6955C60.1736 60.4549 59.558 61.0705 58.7986 61.0705C58.0393 61.0705 57.4236 60.4549 57.4236 59.6955C57.4236 58.9361 58.0393 58.3205 58.7986 58.3205C59.558 58.3205 60.1736 58.9361 60.1736 59.6955Z" fill="#AA0E21"/>
<path d="M62.007 55.5705C62.007 56.0767 61.5966 56.4871 61.0903 56.4871C60.5841 56.4871 60.1736 56.0767 60.1736 55.5705C60.1736 55.0642 60.5841 54.6538 61.0903 54.6538C61.5966 54.6538 62.007 55.0642 62.007 55.5705Z" fill="#AA0E21"/>
<path d="M53.8333 75.6608C53.8333 76.1671 53.4229 76.5775 52.9167 76.5775C52.4104 76.5775 52 76.1671 52 75.6608C52 75.1545 52.4104 74.7441 52.9167 74.7441C53.4229 74.7441 53.8333 75.1545 53.8333 75.6608Z" fill="#AA0E21"/>
<path d="M48.1395 28.7368C57.4119 28.7368 64.9286 26.2348 64.9286 23.1485V21.7671C64.2261 21.2472 62.598 19.7047 61.7054 17.6943H34.2461C33.651 19.0115 32.0677 20.9583 31.3505 21.7671V23.1485C31.3505 26.2348 38.8672 28.7368 48.1395 28.7368Z" fill="#BAF7FF"/>
<path fill-rule="evenodd" clip-rule="evenodd" d="M29.3505 21.7671C29.3505 21.2781 29.5296 20.806 29.8541 20.4401C30.1783 20.0745 30.7169 19.4299 31.2395 18.7275C31.7831 17.9969 32.219 17.3235 32.4234 16.8709C32.747 16.1547 33.4601 15.6943 34.2461 15.6943H61.7054C62.496 15.6943 63.2125 16.1601 63.5333 16.8828C64.2473 18.4908 65.6066 19.7807 66.1184 20.1595C66.628 20.5367 66.9286 21.1331 66.9286 21.7671V23.1485C66.9286 24.7968 65.9233 26.0477 64.8461 26.8954C63.746 27.7611 62.2782 28.4533 60.6428 28.9977C57.351 30.0934 52.9306 30.7368 48.1395 30.7368C43.3485 30.7368 38.928 30.0934 35.6362 28.9977C34.0008 28.4533 32.533 27.7611 31.433 26.8954C30.3558 26.0477 29.3505 24.7968 29.3505 23.1485V21.7671ZM34.2461 17.6943H61.7054C62.598 19.7047 64.2261 21.2472 64.9286 21.7671V23.1485C64.9286 26.2348 57.4119 28.7368 48.1395 28.7368C38.8672 28.7368 31.3505 26.2348 31.3505 23.1485V21.7671C32.0677 20.9583 33.651 19.0115 34.2461 17.6943Z" fill="#65A6BA"/>
<path d="M64.9286 21.7671V23.1485C64.9286 25.436 60.7994 27.4025 54.8866 28.2672C53.5749 27.2244 52 24.5625 51.25 21.7671C51.25 21.7671 55.5993 21.696 58 20.5C59.6246 19.6906 61.7054 17.6943 61.7054 17.6943C62.5979 19.7047 64.2261 21.2472 64.9286 21.7671Z" fill="#8EDFEA"/>
<path d="M61.8661 18.2635C61.8661 20.9985 55.658 23.2156 48 23.2156C40.342 23.2156 34.1339 20.9985 34.1339 18.2635C34.1339 15.5284 40.342 13.3113 48 13.3113C55.658 13.3113 61.8661 15.5284 61.8661 18.2635Z" fill="#9CD7DF"/>
<path fill-rule="evenodd" clip-rule="evenodd" d="M58.4775 23.6487C55.7007 24.6403 51.9962 25.2156 48 25.2156C44.0038 25.2156 40.2993 24.6403 37.5225 23.6487C36.1429 23.1559 34.8847 22.5225 33.9333 21.7192C32.9911 20.9236 32.1339 19.7642 32.1339 18.2635C32.1339 16.7627 32.9911 15.6033 33.9333 14.8077C34.8847 14.0044 36.1429 13.371 37.5225 12.8783C40.2993 11.8866 44.0038 11.3113 48 11.3113C51.9962 11.3113 55.7007 11.8866 58.4775 12.8783C59.8571 13.371 61.1153 14.0044 62.0667 14.8077C63.0089 15.6033 63.8661 16.7627 63.8661 18.2635C63.8661 19.7642 63.0089 20.9236 62.0667 21.7192C61.1153 22.5225 59.8571 23.1559 58.4775 23.6487ZM48 23.2156C55.658 23.2156 61.8661 20.9985 61.8661 18.2635C61.8661 15.5284 55.658 13.3113 48 13.3113C40.342 13.3113 34.1339 15.5284 34.1339 18.2635C34.1339 20.9985 40.342 23.2156 48 23.2156Z" fill="#428EA6"/>
<path d="M47.0958 17.9993C47.0958 18.6566 45.6037 19.1895 43.7632 19.1895C41.9227 19.1895 40.4307 18.6566 40.4307 17.9993C40.4307 17.342 41.9227 16.8091 43.7632 16.8091C45.6037 16.8091 47.0958 17.342 47.0958 17.9993Z" fill="#BAF7FF"/>
<path fill-rule="evenodd" clip-rule="evenodd" d="M45.4927 19.0168C45.4689 19.022 45.445 19.0271 45.4208 19.032C44.9326 19.1322 44.3666 19.1895 43.7632 19.1895C43.1598 19.1895 42.5938 19.1322 42.1056 19.032C42.0814 19.0271 42.0575 19.022 42.0337 19.0168C41.0726 18.808 40.4307 18.4304 40.4307 17.9993C40.4307 17.5681 41.0726 17.1905 42.0337 16.9817C42.0575 16.9765 42.0814 16.9715 42.1056 16.9665C42.5938 16.8664 43.1598 16.8091 43.7632 16.8091C44.3666 16.8091 44.9326 16.8664 45.4208 16.9665C45.445 16.9715 45.4689 16.9765 45.4927 16.9817C46.4538 17.1905 47.0958 17.5681 47.0958 17.9993C47.0958 18.4304 46.4538 18.808 45.4927 19.0168ZM46.7923 20.7244C45.9218 21.0353 44.8507 21.1895 43.7632 21.1895C42.6758 21.1895 41.6046 21.0353 40.7341 20.7244C40.3075 20.572 39.8207 20.344 39.4022 19.9907C38.9931 19.6452 38.4307 18.9806 38.4307 17.9993C38.4307 17.0179 38.9931 16.3534 39.4022 16.0079C39.8207 15.6546 40.3075 15.4265 40.7341 15.2742C41.6046 14.9633 42.6758 14.8091 43.7632 14.8091C44.8507 14.8091 45.9218 14.9633 46.7923 15.2742C47.2189 15.4265 47.7058 15.6546 48.1242 16.0079C48.5333 16.3534 49.0958 17.0179 49.0958 17.9993C49.0958 18.9806 48.5333 19.6452 48.1242 19.9907C47.7058 20.344 47.2189 20.572 46.7923 20.7244Z" fill="#65A6BA"/>
<path fill-rule="evenodd" clip-rule="evenodd" d="M33.2929 23.2929C33.6834 22.9024 34.3166 22.9024 34.7071 23.2929C34.8025 23.3883 35.0303 23.5507 35.4343 23.7559C35.8202 23.9519 36.3053 24.1564 36.8572 24.357C37.9609 24.7582 39.2741 25.1225 40.4774 25.3632C41.0189 25.4715 41.3701 25.9983 41.2618 26.5399C41.1535 27.0814 40.6267 27.4326 40.0851 27.3243C38.7884 27.065 37.3776 26.6741 36.1741 26.2367C35.5723 26.018 35.0079 25.7825 34.5286 25.5391C34.0674 25.3048 33.6141 25.0283 33.2929 24.7071C32.9024 24.3166 32.9024 23.6834 33.2929 23.2929Z" fill="#EBFDFF"/>
<path d="M40.292 32.6593C38.0302 32.2067 35.7825 31.4185 34.2105 30.7724C33.5272 30.4916 32.75 30.9853 32.75 31.724V52.4923C32.75 52.865 32.8472 53.2354 33.0767 53.5291C34.5462 55.4099 37.425 56.6696 39.7478 57.372C40.9386 57.732 42.0625 56.7964 42.0625 55.5524V34.7303C42.0625 33.71 41.2924 32.8595 40.292 32.6593Z" fill="#FF495F"/>
<path fill-rule="evenodd" clip-rule="evenodd" d="M35.5 33.5C36.0523 33.5 36.5 33.9477 36.5 34.5V49C36.5 49.5523 36.0523 50 35.5 50C34.9477 50 34.5 49.5523 34.5 49V34.5C34.5 33.9477 34.9477 33.5 35.5 33.5Z" fill="#FFB5BE"/>
<path d="M47.8995 63.8877C47.8995 64.982 47.0123 65.8692 45.9179 65.8692C44.8236 65.8692 43.9364 64.982 43.9364 63.8877C43.9364 62.7933 44.8236 61.9061 45.9179 61.9061C47.0123 61.9061 47.8995 62.7933 47.8995 63.8877Z" fill="white"/>
<path d="M50.5838 69.115C50.5838 69.8563 49.9829 70.4572 49.2416 70.4572C48.5003 70.4572 47.8994 69.8563 47.8994 69.115C47.8994 68.3737 48.5003 67.7728 49.2416 67.7728C49.9829 67.7728 50.5838 68.3737 50.5838 69.115Z" fill="white"/>
<path d="M52.3249 57.3247C52.3249 58.8386 51.0977 60.0659 49.5838 60.0659C48.0699 60.0659 46.8427 58.8386 46.8427 57.3247C46.8427 55.8109 48.0699 54.5836 49.5838 54.5836C51.0977 54.5836 52.3249 55.8109 52.3249 57.3247Z" fill="white"/>
<path d="M46.7198 50.3471C46.7198 52.1346 45.2708 53.5836 43.4833 53.5836C41.6959 53.5836 40.2468 52.1346 40.2468 50.3471C40.2468 48.5596 41.6959 47.1106 43.4833 47.1106C45.2708 47.1106 46.7198 48.5596 46.7198 50.3471Z" fill="white"/>
<path d="M55 43.133C55 45.5224 53.0631 47.4593 50.6737 47.4593C48.2843 47.4593 46.3474 45.5224 46.3474 43.133C46.3474 40.7436 48.2843 38.8066 50.6737 38.8066C53.0631 38.8066 55 40.7436 55 43.133Z" fill="white"/>
</svg>
