<svg width="30" height="30" viewBox="0 0 30 30" fill="none" xmlns="http://www.w3.org/2000/svg">
<path d="M17 2C14.443 2 12.172 3.20331 10.707 5.07031C10.474 5.03731 10.242 5 10 5C7.47001 5 5.40137 6.88522 5.06837 9.32422C2.50137 10.1982 0.712122 12.7565 1.03712 15.6855C1.37812 18.7555 4.12586 21 7.21486 21H14V14C14 13.448 14.448 13 15 13C15.552 13 16 13.448 16 14V21H22.7871C25.8701 21 28.613 18.7642 28.961 15.7012C29.293 12.7782 27.5198 10.2229 24.9668 9.33594C24.6288 5.22894 21.194 2 17 2ZM16 21H14V26.5859L11.707 24.293C11.6139 24.1972 11.5024 24.121 11.3793 24.069C11.2562 24.017 11.1239 23.9902 10.9902 23.9902C10.7913 23.9903 10.5969 24.0497 10.4319 24.1608C10.2669 24.2719 10.1388 24.4297 10.0639 24.614C9.98906 24.7983 9.97087 25.0008 10.0117 25.1955C10.0525 25.3902 10.1504 25.5683 10.293 25.707L14.293 29.707C14.4805 29.8945 14.7348 29.9998 15 29.9998C15.2652 29.9998 15.5195 29.8945 15.707 29.707L19.707 25.707C19.803 25.6149 19.8796 25.5045 19.9324 25.3824C19.9852 25.2603 20.0131 25.1288 20.0145 24.9958C20.0158 24.8627 19.9906 24.7308 19.9403 24.6076C19.89 24.4844 19.8157 24.3725 19.7216 24.2784C19.6275 24.1843 19.5156 24.11 19.3924 24.0597C19.2692 24.0094 19.1373 23.9842 19.0042 23.9856C18.8712 23.9869 18.7398 24.0148 18.6176 24.0676C18.4955 24.1204 18.3851 24.197 18.293 24.293L16 26.5859V21Z" fill="#D6CCCC"/>
</svg>
