<svg width="96" height="97" viewBox="0 0 96 97" fill="none" xmlns="http://www.w3.org/2000/svg">
<path d="M47.5251 43.48C43.2614 49.4621 39.801 49.5587 38.7024 59.1382C37.3785 70.6815 45.6685 80.26 57.0995 81.571C68.5305 82.882 78.6706 76.3289 79.9945 64.7856C81.0931 55.2061 77.4265 53.8738 74.3249 46.8646C70.8871 39.0954 74.951 28.9143 62.8773 27.5296C49.7688 26.0262 52.5431 36.4398 47.5251 43.48Z" fill="#A4D31F"/>
<path fill-rule="evenodd" clip-rule="evenodd" d="M42.9853 45.6753C43.8991 44.7044 44.842 43.6551 45.8287 42.2708C46.8976 40.7711 47.5869 39.0417 48.2219 37.1449C48.3594 36.7342 48.4971 36.3051 48.6381 35.8659C49.1129 34.3864 49.6245 32.7925 50.287 31.4039C51.1879 29.5156 52.4887 27.7096 54.6835 26.5541C56.8465 25.4153 59.5971 25.0564 63.1147 25.4598C66.4317 25.8402 68.9054 26.8578 70.6925 28.5145C72.4727 30.1648 73.3467 32.243 73.8606 34.2973C74.2412 35.8186 74.4579 37.4977 74.6605 39.0676C74.7225 39.5479 74.7831 40.018 74.8468 40.4702C75.1324 42.4999 75.4927 44.355 76.2301 46.0215C76.9523 47.6537 77.71 48.9631 78.4561 50.1959C78.5737 50.3902 78.6929 50.5854 78.8127 50.7818C79.4343 51.8003 80.0745 52.8492 80.6094 53.9522C81.9727 56.7637 82.652 59.8981 82.0642 65.023C80.5849 77.9222 69.2111 85.057 56.8621 83.6408C44.3818 82.2094 35.1672 71.6787 36.6326 58.9008C37.2158 53.8157 38.4654 51.0116 40.2839 48.6791C40.9781 47.7886 41.7553 46.9709 42.5027 46.1846C42.6654 46.0135 42.8266 45.8439 42.9853 45.6753ZM43.9873 47.6471C45.069 46.5082 46.2618 45.2525 47.5252 43.48C49.0832 41.2941 49.89 38.783 50.6543 36.4044C52.3515 31.122 53.8388 26.493 62.8773 27.5296C71.1907 28.483 71.8531 33.6069 72.5817 39.2423C72.9112 41.7913 73.2542 44.4449 74.3249 46.8645C75.2286 48.9068 76.1803 50.4671 77.0481 51.8899C79.1586 55.3502 80.773 57.9972 79.9945 64.7856C78.6706 76.3288 68.5305 82.882 57.0995 81.571C45.6685 80.26 37.3785 70.6814 38.7024 59.1382C39.4755 52.397 41.4182 50.3518 43.9873 47.6471Z" fill="#5B7C14"/>
<path fill-rule="evenodd" clip-rule="evenodd" d="M43.0901 74.1585C44.7472 75.1744 46.5773 75.9887 48.5501 76.56C59.6019 79.7606 70.6936 74.9918 73.9255 63.8315C75.8262 57.2682 74.6762 54.389 73.1729 50.6248C72.5547 49.0772 71.8769 47.3799 71.3267 45.2155C70.6749 42.6511 70.7796 39.9775 70.8801 37.4093C70.9539 35.5246 71.0255 33.6967 70.7942 32.0104C71.9108 34.0541 72.2389 36.5917 72.5815 39.2424C72.9111 41.7914 73.2541 44.445 74.3248 46.8646C75.2285 48.9069 76.1801 50.4672 77.0479 51.89C79.1585 55.3504 80.7729 57.9973 79.9944 64.7857C78.6705 76.3289 68.5304 82.8821 57.0994 81.5711C51.3681 80.9138 46.4263 78.1781 43.0901 74.1585Z" fill="#92BC1B"/>
<path d="M53.0369 46.2412C55.1375 47.7901 54.7678 51.8566 52.2112 55.3239C49.6545 58.7913 45.879 60.3465 43.7783 58.7976C41.6777 57.2487 42.0474 53.1822 44.6041 49.7148C47.1607 46.2475 50.9362 44.6923 53.0369 46.2412Z" fill="#BBEB35"/>
<path d="M59.8476 29.4269C60.5735 30.2463 60.0655 31.882 58.7129 33.0802C57.3603 34.2785 55.6753 34.5855 54.9493 33.7661C54.2234 32.9466 54.7314 31.3109 56.0841 30.1127C57.4367 28.9145 59.1217 28.6074 59.8476 29.4269Z" fill="#BBEB35"/>
<path fill-rule="evenodd" clip-rule="evenodd" d="M48.2582 51.1502C49.0918 51.9433 49.1247 53.2619 48.3317 54.0956C47.9416 54.5056 47.7188 54.8574 47.5979 55.1432C47.1497 56.2029 45.9273 56.6986 44.8676 56.2504C43.8079 55.8022 43.3122 54.5798 43.7604 53.5201C44.1171 52.6766 44.6564 51.9137 45.3129 51.2237C46.1059 50.3901 47.4246 50.3572 48.2582 51.1502Z" fill="white"/>
<path d="M79.1462 17.0506C79.1462 17.0506 75.0366 22.6819 71.1674 24.1868C67.2981 25.6918 62.7989 23.4088 62.7989 23.4088C62.7989 23.4088 64.5732 18.6858 68.4424 17.1809C72.3117 15.676 79.1462 17.0506 79.1462 17.0506Z" fill="#87D623"/>
<path fill-rule="evenodd" clip-rule="evenodd" d="M80.829 18.2787L79.1462 17.0506L79.557 15.0082C80.2533 15.1483 80.8303 15.6335 81.0878 16.2954C81.3453 16.9574 81.2478 17.705 80.829 18.2787ZM76.7821 16.6953C78.1862 16.8575 79.1462 17.0506 79.1462 17.0506C79.1462 17.0506 78.5689 17.8416 77.6435 18.9099C76.0996 20.692 73.5865 23.2459 71.1674 24.1868C67.2981 25.6918 62.799 23.4088 62.799 23.4088C62.799 23.4088 64.5732 18.6858 68.4425 17.1809C70.8616 16.24 74.4398 16.4247 76.7821 16.6953ZM62.799 23.4088C60.8487 22.6761 60.8489 22.6755 60.8491 22.6749L60.8497 22.6736L60.8508 22.6706L60.8536 22.6633L60.8612 22.6435C60.8672 22.628 60.875 22.608 60.8847 22.5837C60.904 22.5352 60.9308 22.4696 60.9651 22.3888C61.0336 22.2274 61.1326 22.0044 61.2631 21.7361C61.5229 21.202 61.9138 20.4748 62.4448 19.6908C63.48 18.1626 65.1875 16.2115 67.6873 15.2392C70.0838 14.3071 73.1618 14.315 75.3928 14.4733C76.556 14.5558 77.587 14.6879 78.3274 14.7991C78.6987 14.8549 78.9995 14.9059 79.2105 14.9435C79.316 14.9623 79.3993 14.9778 79.4578 14.9889L79.5268 15.0022L79.5468 15.0062L79.5554 15.0079L79.557 15.0082C79.5574 15.0083 79.557 15.0082 79.1462 17.0506C80.829 18.2787 80.8293 18.2784 80.829 18.2787L80.8281 18.2801L80.8229 18.2871L80.8108 18.3036L80.7689 18.36C80.7333 18.4077 80.6824 18.4754 80.6173 18.5606C80.4872 18.7309 80.2998 18.9717 80.0638 19.2637C79.5932 19.846 78.9224 20.6399 78.1206 21.4867C76.5829 23.1108 74.3191 25.1964 71.9225 26.1285C69.4228 27.1007 66.8457 26.8161 65.05 26.3889C64.1287 26.1698 63.3493 25.8978 62.7969 25.6796C62.5194 25.57 62.2957 25.4725 62.1362 25.3998C62.0563 25.3634 61.9922 25.3331 61.9452 25.3104C61.9217 25.2991 61.9024 25.2896 61.8875 25.2822L61.8685 25.2728L61.8615 25.2693L61.8574 25.2672C61.8568 25.2669 61.8562 25.2666 62.799 23.4088ZM60.8487 22.6761L62.799 23.4088L61.8562 25.2666C60.9093 24.7861 60.4753 23.6702 60.8487 22.6761Z" fill="#156319"/>
<path d="M70.9152 23.5956C74.2049 22.316 77.773 17.7188 77.773 17.7188C70.5128 18.7073 65.4821 21.7345 63.8743 23.1246C63.8743 23.1246 67.6254 24.8751 70.9152 23.5956Z" fill="#79C01E"/>
<path d="M57.8255 17.0688C59.0959 17.7722 61.7466 23.3387 62.3469 26.0807C62.397 26.3094 63.028 26.1486 62.987 25.9491C62.8987 23.4717 62.0921 17.458 60.6923 15.3241C58.7763 15.2189 57.8913 16.5354 57.8255 17.0688Z" fill="#8C5936"/>
<path fill-rule="evenodd" clip-rule="evenodd" d="M56.7112 18.8291C56.0336 18.4004 55.6589 17.6169 55.7578 16.8139C55.8739 15.8725 56.4887 14.9622 57.248 14.3428C58.1082 13.641 59.3158 13.162 60.8065 13.2439C61.4672 13.2802 62.0714 13.6281 62.4343 14.1814C62.948 14.9645 63.3296 15.9657 63.6226 16.9313C63.9256 17.9298 64.1768 19.0384 64.3795 20.1261C64.7734 22.2393 65.0092 24.4111 65.0653 25.776C65.1782 26.9245 64.3632 27.6054 64.14 27.7685C63.7969 28.019 63.4374 28.1439 63.1682 28.2058C62.9049 28.2664 62.4978 28.3199 62.0396 28.2222C61.6012 28.1288 60.5765 27.7356 60.3118 26.5262C60.0634 25.392 59.3326 23.4872 58.4681 21.7299C58.0436 20.867 57.6168 20.1012 57.243 19.533C57.0554 19.2478 56.9013 19.0433 56.7867 18.9113C56.7528 18.8722 56.7277 18.8457 56.7112 18.8291ZM62.987 25.9491C62.9869 25.9463 62.9868 25.9434 62.9867 25.9406C62.9692 25.4553 62.9242 24.8354 62.8528 24.1362C62.7241 22.8759 62.5094 21.3579 62.2143 19.9057C61.8356 18.0426 61.3244 16.2878 60.6923 15.3241C60.1336 15.2934 59.6626 15.3836 59.274 15.54C58.8611 15.7062 58.5412 15.9472 58.3081 16.1973C58.0081 16.5191 57.8517 16.8562 57.8255 17.0688C58.4343 17.4059 59.36 18.8596 60.2252 20.5842C60.8304 21.7906 61.406 23.1295 61.8228 24.3114C62.0374 24.92 62.2099 25.487 62.3226 25.9728C62.331 26.0092 62.3391 26.0452 62.3469 26.0807C62.397 26.3094 63.0281 26.1486 62.987 25.9491ZM60.902 25.9438C60.9019 26.0771 60.9156 26.2187 60.9464 26.3686C60.923 26.2548 60.9092 26.1393 60.905 26.0233C60.9041 25.9973 60.9031 25.9707 60.902 25.9438Z" fill="#583A24"/>
<path d="M61.0988 15.5992C61.3909 16.1222 60.8887 16.9589 59.9772 17.468C59.0656 17.9771 58.0898 17.9659 57.7977 17.4429C57.5057 16.9199 58.0078 16.0832 58.9194 15.5741C59.831 15.065 60.8067 15.0763 61.0988 15.5992Z" fill="#C27A49"/>
<path d="M72.4847 58.7186C72.3707 59.7126 71.4725 60.426 70.4785 60.312C69.4845 60.198 68.7711 59.2998 68.8851 58.3058C68.9991 57.3118 69.8973 56.5984 70.8913 56.7124C71.8853 56.8264 72.5987 57.7246 72.4847 58.7186Z" fill="#83A918"/>
<path d="M77.4712 62.9375C77.3572 63.9315 76.459 64.6449 75.465 64.5309C74.471 64.4169 73.7576 63.5187 73.8716 62.5247C73.9856 61.5307 74.8838 60.8173 75.8778 60.9313C76.8718 61.0453 77.5852 61.9435 77.4712 62.9375Z" fill="#83A918"/>
<path d="M77.2422 56.9849C77.1567 57.7304 76.483 58.2654 75.7375 58.1799C74.992 58.0944 74.457 57.4207 74.5425 56.6752C74.628 55.9297 75.3016 55.3947 76.0471 55.4802C76.7926 55.5657 77.3277 56.2394 77.2422 56.9849Z" fill="#83A918"/>
<path d="M76.7488 69.2367C76.6348 70.2307 75.7366 70.9441 74.7426 70.8301C73.7486 70.7161 73.0352 69.8179 73.1492 68.8239C73.2632 67.8299 74.1614 67.1165 75.1554 67.2305C76.1494 67.3445 76.8628 68.2427 76.7488 69.2367Z" fill="#83A918"/>
<path d="M71.7622 65.0179C71.6482 66.0119 70.75 66.7253 69.756 66.6113C68.762 66.4973 68.0486 65.5991 68.1626 64.6051C68.2766 63.6111 69.1748 62.8977 70.1688 63.0117C71.1628 63.1257 71.8762 64.0239 71.7622 65.0179Z" fill="#83A918"/>
<path d="M72.53 74.2233C72.416 75.2173 71.5178 75.9307 70.5238 75.8167C69.5298 75.7027 68.8164 74.8045 68.9304 73.8105C69.0444 72.8165 69.9426 72.1031 70.9366 72.2171C71.9306 72.3311 72.644 73.2293 72.53 74.2233Z" fill="#83A918"/>
<path d="M67.4402 70.9043C67.3262 71.8983 66.428 72.6117 65.434 72.4977C64.44 72.3837 63.7266 71.4855 63.8406 70.4915C63.9546 69.4975 64.8528 68.7841 65.8468 68.8981C66.8408 69.0121 67.5542 69.9103 67.4402 70.9043Z" fill="#83A918"/>
<path d="M67.566 77.7568C67.4805 78.5023 66.8069 79.0374 66.0614 78.9519C65.3159 78.8664 64.7808 78.1927 64.8663 77.4472C64.9518 76.7017 65.6255 76.1667 66.371 76.2522C67.1165 76.3377 67.6515 77.0113 67.566 77.7568Z" fill="#83A918"/>
<path d="M39.6097 40.3539C39.6097 40.3539 39.4001 47.0781 36.8443 50.0657C33.7638 53.6664 27.8335 52.3119 27.8335 52.3119C27.8335 52.3119 27.393 46.9881 30.8964 43.4307C33.5913 40.6942 39.6097 40.3539 39.6097 40.3539Z" fill="#10BC17"/>
<path fill-rule="evenodd" clip-rule="evenodd" d="M41.1594 40.4022L39.6097 40.3539L39.5222 38.8059C39.9563 38.7814 40.3808 38.9403 40.6921 39.2438C41.0034 39.5473 41.173 39.9676 41.1594 40.4022ZM38.0496 40.5284C38.9857 40.3892 39.6097 40.3539 39.6097 40.3539C39.6097 40.3539 39.5905 40.9723 39.4923 41.9174C39.2668 44.0887 38.625 47.9841 36.8443 50.0656C33.7638 53.6664 27.8335 52.3119 27.8335 52.3119C27.8335 52.3119 27.393 46.988 30.8964 43.4306C32.7235 41.5753 36.0785 40.8215 38.0496 40.5284ZM27.8335 52.3119C26.2883 52.4397 26.2883 52.4392 26.2882 52.4386L26.2881 52.4373L26.2879 52.4345L26.2873 52.4272L26.2858 52.4069C26.2847 52.3907 26.2833 52.3694 26.2817 52.3433C26.2786 52.291 26.2749 52.2189 26.2719 52.129C26.2657 51.9493 26.2619 51.6972 26.2694 51.3869C26.2844 50.7681 26.3448 49.9079 26.5265 48.9238C26.8866 46.9731 27.7455 44.4205 29.7917 42.3427C31.4648 40.6439 34.0154 39.7959 35.9133 39.3557C36.8999 39.1269 37.7921 38.9905 38.4378 38.911C38.7617 38.8711 39.0261 38.8452 39.2126 38.8292C39.3059 38.8211 39.3799 38.8155 39.4323 38.8118C39.4584 38.81 39.4792 38.8086 39.4943 38.8076L39.5126 38.8065L39.5207 38.806L39.5222 38.8059C39.5226 38.8059 39.5222 38.8059 39.6097 40.3539C41.1594 40.4022 41.1594 40.4019 41.1594 40.4022L41.1593 40.4057L41.1591 40.4116L41.1584 40.4307C41.1579 40.4466 41.157 40.4688 41.1558 40.4971C41.1533 40.5535 41.1495 40.6341 41.1437 40.7362C41.1322 40.9402 41.1129 41.2307 41.0815 41.5872C41.019 42.2981 40.9075 43.2805 40.7111 44.3656C40.3339 46.4495 39.5897 49.2415 38.0224 51.0735C36.0854 53.3377 33.3271 53.9643 31.2761 54.0867C30.229 54.1492 29.2972 54.0855 28.628 54.0072C28.2916 53.9678 28.0171 53.9242 27.822 53.8894C27.7244 53.872 27.6463 53.8567 27.59 53.8452C27.5619 53.8394 27.5392 53.8346 27.5221 53.8309L27.5008 53.8262L27.4934 53.8246L27.4894 53.8237C27.4888 53.8235 27.4883 53.8234 27.8335 52.3119ZM26.2883 52.4397L27.8335 52.3119L27.4883 53.8234C26.8295 53.6729 26.344 53.1132 26.2883 52.4397Z" fill="#156319"/>
<path d="M35.8017 49.8033C37.9607 47.611 38.5637 42.1076 38.5637 42.1076C33.0398 45.3843 30.5921 50.0425 29.8533 51.7646C29.8533 51.7646 33.6427 51.9956 35.8017 49.8033Z" fill="#07A00E"/>
<path d="M16.1459 48.4279C16.1459 48.4279 20.7948 46.1652 23.7412 46.8351C27.2924 47.6426 28.4923 52.161 28.4923 52.161C28.4923 52.161 25.0285 54.3649 21.3555 53.2543C18.5301 52.4001 16.1459 48.4279 16.1459 48.4279Z" fill="#13CA1B"/>
<path fill-rule="evenodd" clip-rule="evenodd" d="M15.4674 47.0339L16.1459 48.428L14.8165 49.2259C14.5928 48.8531 14.5358 48.4035 14.6596 47.9867C14.7833 47.5699 15.0764 47.2242 15.4674 47.0339ZM17.0426 49.7211C16.4785 48.9822 16.1459 48.428 16.1459 48.428C16.1459 48.428 16.7199 48.1486 17.5925 47.8152C19.2029 47.1999 21.8302 46.4007 23.7412 46.8353C27.2924 47.6427 28.4923 52.1611 28.4923 52.1611C28.4923 52.1611 25.0285 54.365 21.3555 53.2545C19.5855 52.7193 17.9886 50.9604 17.0426 49.7211ZM28.4923 52.1611C29.3246 53.4692 29.3242 53.4695 29.3237 53.4698L29.3227 53.4705L29.3204 53.4719L29.3148 53.4754L29.2997 53.4848C29.288 53.4921 29.2728 53.5014 29.2543 53.5126C29.2174 53.5349 29.1671 53.5647 29.1043 53.6005C28.9788 53.6721 28.8024 53.7682 28.5819 53.8775C28.1423 54.0952 27.5178 54.3696 26.7618 54.6047C25.2667 55.0697 23.145 55.4153 20.9068 54.7385C19.0499 54.1771 17.5045 52.6776 16.5174 51.5339C15.9987 50.9328 15.579 50.3642 15.2888 49.9459C15.143 49.7359 15.0284 49.5616 14.9487 49.4372C14.9088 49.375 14.8775 49.3251 14.8553 49.2893L14.829 49.2464L14.821 49.2333L14.8183 49.2289L14.8165 49.2259C14.8164 49.2256 14.8165 49.2259 16.1459 48.428C15.4674 47.0339 15.4671 47.034 15.4674 47.0339L15.4702 47.0325L15.4748 47.0303L15.489 47.0235L15.5371 47.0006C15.5778 46.9814 15.6354 46.9545 15.7084 46.9213C15.8543 46.8548 16.0623 46.7624 16.3198 46.6547C16.833 46.4399 17.5517 46.1602 18.373 45.9015C19.9321 45.4106 22.1777 44.8898 24.085 45.3234C26.4558 45.8624 27.9364 47.6111 28.7753 48.9989C29.2059 49.7112 29.5047 50.3879 29.6962 50.8853C29.7926 51.1356 29.8635 51.3448 29.9115 51.496C29.9356 51.5717 29.954 51.6331 29.9671 51.6783C29.9736 51.7009 29.9788 51.7194 29.9828 51.7336L29.9878 51.7517L29.9895 51.7583L29.9905 51.7621C29.9907 51.7626 29.9908 51.7632 28.4923 52.1611ZM29.3246 53.4692L28.4923 52.1611L29.9908 51.7632C30.1643 52.4163 29.8947 53.1065 29.3246 53.4692Z" fill="#156319"/>
<path fill-rule="evenodd" clip-rule="evenodd" d="M16.8563 48.1109C16.4116 48.2986 16.1459 48.4279 16.1459 48.4279C16.1459 48.4279 18.5301 52.4001 21.3555 53.2544C25.0285 54.365 28.4923 52.1611 28.4923 52.1611C28.4923 52.1611 28.2062 51.0836 27.4999 49.8869C26.3491 50.5406 23.8487 51.6668 21.1185 51.0374C19.4705 50.6575 17.8984 49.2466 16.8563 48.1109Z" fill="#33ED3B"/>
<path d="M47.7295 64.6386C49.5907 73.9127 43.5814 82.9397 34.3072 84.8009C25.0331 86.6622 16.0061 80.6528 14.1448 71.3787C12.2836 62.1045 18.2929 53.0775 27.5671 51.2163C36.8412 49.3551 45.8682 55.3644 47.7295 64.6386Z" fill="#FE9F81"/>
<path fill-rule="evenodd" clip-rule="evenodd" d="M49.2496 64.3335C51.2793 74.4472 44.726 84.2913 34.6123 86.3211C24.4986 88.3508 14.6544 81.7975 12.6247 71.6838C10.595 61.5701 17.1483 51.7259 27.262 49.6962C37.3757 47.6664 47.2199 54.2198 49.2496 64.3335ZM34.3072 84.8009C43.5814 82.9397 49.5907 73.9127 47.7295 64.6385C45.8682 55.3644 36.8412 49.3551 27.5671 51.2163C18.2929 53.0775 12.2836 62.1045 14.1448 71.3787C16.0061 80.6528 25.0331 86.6622 34.3072 84.8009Z" fill="#AB442D"/>
<path fill-rule="evenodd" clip-rule="evenodd" d="M41.1703 81.7477C36.0135 81.9855 30.022 78.0678 26.3758 71.5535C21.8818 63.5245 22.6131 54.521 27.9443 51.1449C27.8186 51.1673 27.6929 51.1911 27.5671 51.2163C18.293 53.0776 12.2836 62.1046 14.1448 71.3787C16.0061 80.6529 25.0331 86.6622 34.3072 84.801C36.8786 84.2849 39.199 83.218 41.1703 81.7477Z" fill="#FF7E6C"/>
<path d="M32.0937 52.9285C34.3568 53.6145 35.3572 56.9225 34.3281 60.3171C33.2991 63.7118 30.6304 65.9075 28.3673 65.2215C26.1042 64.5355 25.1038 61.2275 26.1328 57.8329C27.1618 54.4383 29.8306 52.2425 32.0937 52.9285Z" fill="#FEC0AC"/>
<path fill-rule="evenodd" clip-rule="evenodd" d="M28.9599 58.1791C29.7877 58.3982 30.2812 59.2468 30.0622 60.0746C29.9127 60.6396 29.8907 61.1735 29.9818 61.6921C30.1298 62.5355 29.5661 63.3392 28.7227 63.4872C27.8793 63.6353 27.0756 63.0716 26.9276 62.2282C26.7553 61.2466 26.8058 60.259 27.0645 59.2814C27.2835 58.4536 28.1321 57.9601 28.9599 58.1791Z" fill="white"/>
<path fill-rule="evenodd" clip-rule="evenodd" d="M27.3741 50.8148C29.3814 49.5747 31.6959 49.3398 33.6866 49.6041C34.111 49.6605 34.4094 50.0502 34.3531 50.4746C34.2967 50.8991 33.907 51.1974 33.4826 51.1411C31.7435 50.9102 29.814 51.1299 28.189 52.1338C26.5856 53.1244 25.182 54.9375 24.5747 58.091C23.3413 64.495 25.8734 69.7155 27.2334 71.4617C27.4965 71.7995 27.4359 72.2866 27.0982 72.5496C26.7604 72.8127 26.2733 72.7522 26.0102 72.4144C24.4287 70.3838 21.7192 64.7192 23.0522 57.7978C23.728 54.2887 25.3451 52.0683 27.3741 50.8148Z" fill="#AB442D"/>
<path d="M32.6095 81.2516C33.216 81.9007 33.1814 82.9185 32.5324 83.5249C31.8834 84.1314 30.8656 84.0968 30.2591 83.4478C29.6527 82.7988 29.6872 81.781 30.3362 81.1745C30.9853 80.5681 32.0031 80.6026 32.6095 81.2516Z" fill="#EC6B59"/>
<path d="M37.4549 79.7262C38.0614 80.3753 38.0268 81.393 37.3778 81.9995C36.7288 82.6059 35.711 82.5714 35.1045 81.9224C34.4981 81.2733 34.5326 80.2556 35.1816 79.6491C35.8307 79.0427 36.8485 79.0772 37.4549 79.7262Z" fill="#EC6B59"/>
<path d="M34.3532 76.0045C34.8239 76.5082 34.7971 77.2981 34.2934 77.7687C33.7897 78.2393 32.9999 78.2125 32.5292 77.7088C32.0586 77.2052 32.0854 76.4153 32.5891 75.9447C33.0928 75.474 33.8826 75.5008 34.3532 76.0045Z" fill="#EC6B59"/>
<path d="M40.5592 78.3267C41.0299 78.8304 41.0031 79.6202 40.4994 80.0909C39.9957 80.5615 39.2059 80.5347 38.7352 80.031C38.2646 79.5273 38.2914 78.7375 38.7951 78.2669C39.2988 77.7962 40.0886 77.823 40.5592 78.3267Z" fill="#EC6B59"/>
<path d="M29.633 77.1576C30.1036 77.6613 30.0768 78.4511 29.5731 78.9217C29.0694 79.3924 28.2796 79.3656 27.809 78.8619C27.3383 78.3582 27.3651 77.5684 27.8688 77.0977C28.3725 76.6271 29.1623 76.6539 29.633 77.1576Z" fill="#EC6B59"/>
<path d="M23.0705 75.618C23.5411 76.1217 23.5143 76.9116 23.0106 77.3822C22.507 77.8528 21.7171 77.8261 21.2465 77.3224C20.7758 76.8187 20.8026 76.0288 21.3063 75.5582C21.81 75.0876 22.5999 75.1144 23.0705 75.618Z" fill="#EC6B59"/>
<path d="M41.7697 74.2373C42.2403 74.741 42.2136 75.5308 41.7099 76.0015C41.2062 76.4721 40.4163 76.4453 39.9457 75.9416C39.4751 75.438 39.5019 74.6481 40.0055 74.1775C40.5092 73.7068 41.2991 73.7336 41.7697 74.2373Z" fill="#EC6B59"/>
<path d="M27.6958 81.2454C28.1665 81.7491 28.1397 82.5389 27.636 83.0095C27.1323 83.4802 26.3425 83.4534 25.8718 82.9497C25.4012 82.446 25.428 81.6562 25.9317 81.1855C26.4353 80.7149 27.2252 80.7417 27.6958 81.2454Z" fill="#EC6B59"/>
<path d="M26.0355 77.7805C26.2734 78.0351 26.2599 78.4343 26.0053 78.6722C25.7507 78.91 25.3515 78.8965 25.1137 78.6419C24.8758 78.3873 24.8893 77.9881 25.1439 77.7503C25.3985 77.5124 25.7977 77.526 26.0355 77.7805Z" fill="#EC6B59"/>
<path d="M19.339 75.8312C19.5769 76.0858 19.5633 76.485 19.3088 76.7228C19.0542 76.9607 18.655 76.9472 18.4171 76.6926C18.1793 76.438 18.1928 76.0388 18.4474 75.801C18.702 75.5631 19.1012 75.5766 19.339 75.8312Z" fill="#EC6B59"/>
<path d="M43.9688 76.423C44.2067 76.6776 44.1931 77.0768 43.9385 77.3146C43.684 77.5525 43.2848 77.539 43.0469 77.2844C42.8091 77.0298 42.8226 76.6306 43.0772 76.3928C43.3317 76.1549 43.7309 76.1684 43.9688 76.423Z" fill="#EC6B59"/>
<path d="M38.1907 75.2106C38.4286 75.4651 38.415 75.8643 38.1605 76.1022C37.9059 76.3401 37.5067 76.3265 37.2688 76.072C37.031 75.8174 37.0445 75.4182 37.2991 75.1803C37.5537 74.9425 37.9529 74.956 38.1907 75.2106Z" fill="#EC6B59"/>
<path d="M44.8788 73.0777C45.1167 73.3322 45.1031 73.7314 44.8486 73.9693C44.594 74.2072 44.1948 74.1936 43.9569 73.9391C43.7191 73.6845 43.7326 73.2853 43.9872 73.0474C44.2417 72.8096 44.6409 72.8231 44.8788 73.0777Z" fill="#EC6B59"/>
<path d="M23.7184 79.0439C24.1112 79.4643 24.0889 80.1235 23.6685 80.5163C23.248 80.9091 22.5888 80.8868 22.196 80.4664C21.8032 80.046 21.8255 79.3867 22.2459 78.9939C22.6663 78.6011 23.3256 78.6234 23.7184 79.0439Z" fill="#EC6B59"/>
</svg>
