<svg width="83" height="77" viewBox="0 0 83 77" fill="none" xmlns="http://www.w3.org/2000/svg">
<path d="M21.5254 18.0335C12.1795 17.2365 3.14926 24.8297 3.7531 34.1901C4.72256 51.3162 19.1019 57.3843 27.5842 57.3843C35.6624 57.3843 49.7997 51.6394 51.4153 34.1901C52.0192 24.8298 42.9889 17.2365 33.6429 18.0335C31.1781 18.2437 28.446 19.7287 27.5842 19.8821C26.7224 19.7287 23.9903 18.2437 21.5254 18.0335Z" fill="#00162B" fill-opacity="0.2"/>
<path fill-rule="evenodd" clip-rule="evenodd" d="M53.0261 34.3167L53.0241 34.3391C51.309 52.8621 36.2285 59 27.5842 59C23.0121 59 16.9459 57.3803 11.869 53.4922C6.74029 49.5646 2.65464 43.3423 2.14037 34.2877C1.46704 23.7832 11.5022 15.5572 21.6627 16.4236C23.1292 16.5487 24.6022 17.0412 25.7288 17.4684C26.1118 17.6137 26.4879 17.7647 26.8091 17.8937C26.9572 17.9531 27.0936 18.0079 27.2136 18.0552C27.3572 18.1119 27.4797 18.159 27.5842 18.1972C27.6886 18.159 27.8111 18.1119 27.9548 18.0552C28.0748 18.0079 28.2112 17.9531 28.3592 17.8937C28.6804 17.7647 29.0565 17.6137 29.4395 17.4684C30.5661 17.0412 32.0392 16.5487 33.5057 16.4236C43.6682 15.557 53.7056 23.7865 53.0276 34.2942L53.0261 34.3167ZM27.5842 19.8821C27.298 19.8312 26.8055 19.6334 26.1851 19.3842C24.9373 18.883 23.1717 18.1739 21.5254 18.0335C12.1795 17.2365 3.14926 24.8297 3.7531 34.1901C4.72256 51.3162 19.1019 57.3843 27.5842 57.3843C35.6624 57.3843 49.7997 51.6394 51.4153 34.1901C52.0192 24.8298 42.9889 17.2365 33.6429 18.0335C31.9966 18.1739 30.2311 18.883 28.9833 19.3842C28.3628 19.6334 27.8704 19.8312 27.5842 19.8821Z" fill="#00162B" fill-opacity="0.2"/>
<path d="M26.5873 15.0633C25.5646 7.53148 19.5058 8.74322 15.8706 4.70401C16.8943 7.19899 23.1815 14.0624 26.5873 15.0633Z" fill="#73B40D"/>
<path fill-rule="evenodd" clip-rule="evenodd" d="M27.6736 16.3273C28.1021 15.959 28.3148 15.3988 28.2388 14.839C27.9514 12.7225 27.2909 11.1016 26.3182 9.82504C25.3528 8.55822 24.1633 7.74152 23.0065 7.1107C22.433 6.79797 21.8464 6.52011 21.2979 6.26243C21.256 6.24274 21.2144 6.22318 21.1729 6.20372C20.6587 5.96228 20.178 5.73663 19.7065 5.49032C18.6995 4.96426 17.8321 4.39214 17.1094 3.58913C16.5672 2.98662 15.67 2.86161 14.9837 3.29292C14.2974 3.72424 14.021 4.58679 14.3286 5.33671C14.6756 6.18235 15.3805 7.22814 16.1831 8.25862C17.0137 9.32515 18.0459 10.497 19.1496 11.6149C20.2517 12.7312 21.4487 13.8175 22.6122 14.7008C23.7426 15.5589 24.9694 16.325 26.1174 16.6624C26.6594 16.8216 27.2452 16.6955 27.6736 16.3273ZM26.1375 13.054C26.3327 13.6458 26.4851 14.3109 26.5873 15.0633C26.0299 14.8995 25.3953 14.5787 24.7193 14.1457C22.7902 12.9101 20.5233 10.761 18.7483 8.74061C17.3447 7.14284 16.2486 5.62552 15.8706 4.70406C17.0123 5.97272 18.3932 6.72337 19.782 7.38963C20.0078 7.49794 20.2337 7.60401 20.4589 7.70972C22.8184 8.8173 25.0919 9.88455 26.1375 13.054Z" fill="#436C02"/>
<path d="M27.1823 17.4868C28.205 9.95501 34.4507 6.31974 38.4898 7.12761C32.4311 7.9354 34.0468 15.6098 27.1823 17.4868Z" fill="#73B40D"/>
<path fill-rule="evenodd" clip-rule="evenodd" d="M26.084 18.7405C25.6633 18.3719 25.4555 17.8168 25.5307 17.2626C26.6588 8.95564 33.6679 4.46352 38.8167 5.49335C39.6157 5.65316 40.182 6.36728 40.1556 7.18169C40.1292 7.9961 39.5178 8.67201 38.7101 8.7797C36.6246 9.05774 35.8664 10.3505 34.6063 12.6953L34.5911 12.7235C33.3802 14.9767 31.778 17.958 27.6218 19.0945C27.0823 19.242 26.5047 19.1091 26.084 18.7405ZM27.5649 15.6026C27.4008 16.2007 27.2716 16.8289 27.1822 17.4868C27.8658 17.2999 28.4652 17.0556 28.9965 16.7662C31.16 15.5879 32.1938 13.6639 33.1748 11.8382C33.6655 10.9249 34.143 10.0362 34.7421 9.27785C35.6049 8.1856 36.7199 7.36363 38.4898 7.12765C37.0628 6.84224 35.3605 7.11138 33.7103 7.91096C31.0976 9.17696 28.6157 11.7727 27.5649 15.6026Z" fill="#436C02"/>
<path fill-rule="evenodd" clip-rule="evenodd" d="M27.1802 3.84521C28.1007 3.84521 28.8469 4.59141 28.8469 5.51188V17.6294C28.8469 18.5499 28.1007 19.2961 27.1802 19.2961C26.2597 19.2961 25.5135 18.5499 25.5135 17.6294V5.51188C25.5135 4.59141 26.2597 3.84521 27.1802 3.84521Z" fill="#457003"/>
<path d="M19.9097 16.4179C10.5637 15.6209 1.53349 23.2142 2.13732 32.5746C3.10679 49.7007 17.4861 55.7688 25.9684 55.7688C34.0467 55.7688 48.1839 50.0238 49.7995 32.5746C50.4035 23.2142 41.3731 15.6209 32.0272 16.4179C29.5623 16.6281 26.8302 18.1132 25.9684 18.2666C25.1066 18.1132 22.3745 16.6281 19.9097 16.4179Z" fill="#FF3A1A"/>
<path fill-rule="evenodd" clip-rule="evenodd" d="M51.4613 32.7051L51.4591 32.7282C49.7409 51.2851 34.6307 57.4354 25.9685 57.4354C21.386 57.4354 15.3087 55.8124 10.2222 51.9172C5.08243 47.981 0.988938 41.7453 0.473726 32.6752C-0.2018 22.1345 9.8651 13.8886 20.0513 14.7572C21.5252 14.8829 23.0037 15.3776 24.1312 15.8051C24.5146 15.9506 24.8917 16.102 25.2131 16.231C25.361 16.2904 25.4971 16.345 25.6165 16.3922C25.7521 16.4457 25.8685 16.4905 25.9684 16.5273C26.0684 16.4905 26.1848 16.4457 26.3204 16.3922C26.4399 16.345 26.5759 16.2904 26.7238 16.231C27.0452 16.102 27.4223 15.9506 27.8057 15.8051C28.9332 15.3776 30.4117 14.8829 31.8856 14.7572C42.0739 13.8884 52.1431 22.138 51.4627 32.6819L51.4613 32.7051ZM25.9685 18.2665C25.6823 18.2156 25.1898 18.0178 24.5694 17.7686C23.3215 17.2674 21.556 16.5583 19.9097 16.4179C10.5638 15.6209 1.53353 23.2142 2.13736 32.5746C3.10683 49.7006 17.4861 55.7687 25.9685 55.7687C34.0467 55.7687 48.1839 50.0238 49.7995 32.5746C50.4035 23.2142 41.3731 15.6209 32.0272 16.4179C30.3809 16.5583 28.6154 17.2674 27.3675 17.7686C26.7471 18.0178 26.2547 18.2156 25.9685 18.2665Z" fill="#A20505"/>
<path fill-rule="evenodd" clip-rule="evenodd" d="M5.96301 22.005C9.35939 18.2347 14.5833 15.9637 19.9098 16.4179C21.5561 16.5583 23.3216 17.2674 24.5694 17.7686C25.1899 18.0178 25.6823 18.2156 25.9685 18.2666C26.2547 18.2156 26.7472 18.0178 27.3676 17.7686C28.6155 17.2674 30.381 16.5583 32.0273 16.4179C37.664 15.9372 43.1859 18.5085 46.5486 22.6788C42.1647 20.4332 36.8908 19.2345 32.0273 19.6492C30.381 19.7896 28.6155 20.4987 27.3676 20.9999C26.7472 21.2491 26.2548 21.4469 25.9686 21.4979C25.6824 21.4469 25.1899 21.2491 24.5695 20.9999C23.3216 20.4987 21.5561 19.7896 19.9098 19.6492C14.8821 19.2205 10.0074 20.1536 5.96301 22.005Z" fill="#E83214"/>
<path fill-rule="evenodd" clip-rule="evenodd" d="M9.87219 49.4666C14.2142 52.1904 19.0368 53.3452 22.7371 53.3452C30.8154 53.3452 44.9526 47.6003 46.5682 30.151C46.8562 25.6882 44.954 21.627 41.8718 18.6854C46.7702 21.5326 50.1782 26.7063 49.7995 32.5745C48.1839 50.0238 34.0467 55.7687 25.9684 55.7687C21.3152 55.7687 14.8873 53.9426 9.87219 49.4666Z" fill="#E83214"/>
<path d="M27.1801 14.5955C32.8349 9.55109 34.4506 15.206 39.7015 16.0138C37.0486 16.4986 29.8609 16.9226 27.1801 14.5955Z" fill="#8ED918"/>
<path fill-rule="evenodd" clip-rule="evenodd" d="M25.5135 14.6068C25.5102 14.1278 25.7132 13.6706 26.0706 13.3518C27.6132 11.9757 29.0576 11.1666 30.5173 10.9302C32.0156 10.6875 33.2771 11.0887 34.338 11.6195C34.8567 11.879 35.3532 12.1828 35.8078 12.4674C35.9049 12.5283 36 12.5881 36.0936 12.6471C36.4558 12.8751 36.7968 13.0898 37.1585 13.2987C38.0462 13.8113 38.9277 14.2084 39.9549 14.3665C40.7592 14.4902 41.3566 15.1767 41.368 15.9903C41.3794 16.804 40.8016 17.507 40.0011 17.6533C38.5492 17.9186 35.9604 18.1544 33.3673 18.0236C32.0662 17.958 30.7153 17.7979 29.4807 17.4815C28.2676 17.1706 27.0343 16.6759 26.0876 15.8541C25.7259 15.5402 25.5167 15.0857 25.5135 14.6068ZM28.5348 13.5345C28.1091 13.8177 27.6591 14.1682 27.1801 14.5955C27.5925 14.9535 28.1115 15.2463 28.7043 15.4839C30.6708 16.272 33.4488 16.4514 35.8367 16.3797C37.4081 16.3325 38.8106 16.1766 39.7015 16.0138C38.3537 15.8064 37.2454 15.2797 36.2468 14.6966C35.8831 14.4842 35.5339 14.2643 35.193 14.0496C33.1326 12.752 31.3749 11.6451 28.5348 13.5345Z" fill="#436C02"/>
<path d="M25.9683 15.206C22.7371 11.1668 19.1017 13.5902 12.2351 13.9942C15.0625 15.6098 22.821 16.848 25.9683 15.206Z" fill="#8ED918"/>
<path fill-rule="evenodd" clip-rule="evenodd" d="M27.5992 15.5495C27.7019 15.0619 27.581 14.554 27.2698 14.1649C26.3067 12.961 25.2369 12.1499 24.0042 11.693C22.7937 11.2444 21.558 11.1869 20.349 11.2713C19.3315 11.3423 18.226 11.5247 17.105 11.7098C16.9222 11.74 16.7389 11.7702 16.5556 11.8001C15.213 12.0186 13.7663 12.2345 12.1373 12.3304C11.401 12.3737 10.7807 12.8958 10.6124 13.6139C10.4441 14.332 10.7678 15.0753 11.4082 15.4412C13.1079 16.4125 16.0142 17.1609 18.793 17.4776C20.2122 17.6394 21.6728 17.6977 23.015 17.5987C24.3294 17.5017 25.6631 17.245 26.7392 16.6836C27.181 16.4531 27.4965 16.0371 27.5992 15.5495ZM24.6813 13.9396C25.1213 14.2649 25.5482 14.6808 25.9683 15.206C25.4887 15.4562 24.9021 15.6395 24.2422 15.7648C21.8739 16.2145 18.5614 15.917 15.8652 15.2815C14.3822 14.932 13.0856 14.4801 12.2351 13.9942C13.5888 13.9145 14.817 13.7564 15.9412 13.5848C16.4434 13.5081 16.9249 13.4288 17.3876 13.3525C20.4596 12.8461 22.7024 12.4764 24.6813 13.9396Z" fill="#436C02"/>
<path d="M20.2775 21.3775C21.9377 23.8479 20.2796 27.8695 16.5738 30.3599C12.8681 32.8503 8.5181 32.8664 6.85785 30.3959C5.19759 27.9255 6.85577 23.9039 10.5615 21.4135C14.2672 18.9231 18.6172 18.907 20.2775 21.3775Z" fill="#FE7B7B"/>
<path fill-rule="evenodd" clip-rule="evenodd" d="M13.3963 23.3393C13.9367 24.0845 13.7706 25.1266 13.0254 25.667C12.4799 26.0625 12.0696 26.5244 11.7716 27.056C11.3214 27.8589 10.3056 28.1448 9.50271 27.6947C8.69983 27.2445 8.4139 26.2287 8.86407 25.4258C9.40926 24.4535 10.1518 23.6333 11.0687 22.9684C11.8139 22.4281 12.856 22.5941 13.3963 23.3393Z" fill="white"/>
<path d="M40.6025 39.2453C40.0691 39.9692 39.0498 40.1237 38.3259 39.5904C37.6019 39.057 37.4474 38.0377 37.9808 37.3138C38.5141 36.5898 39.5334 36.4353 40.2574 36.9687C40.9813 37.5021 41.1358 38.5213 40.6025 39.2453Z" fill="#C5270E"/>
<path d="M43.1867 44.6146C42.6533 45.3385 41.634 45.493 40.9101 44.9596C40.1861 44.4263 40.0316 43.407 40.565 42.683C41.0984 41.9591 42.1176 41.8046 42.8416 42.338C43.5656 42.8713 43.7201 43.8906 43.1867 44.6146Z" fill="#C5270E"/>
<path d="M45.1266 39.1069C44.7266 39.6498 43.9621 39.7657 43.4191 39.3657C42.8762 38.9657 42.7603 38.2012 43.1603 37.6582C43.5604 37.1153 44.3248 36.9994 44.8678 37.3994C45.4107 37.7995 45.5266 38.5639 45.1266 39.1069Z" fill="#C5270E"/>
<path d="M39.08 48.8337C38.5466 49.5576 37.5274 49.7121 36.8034 49.1788C36.0794 48.6454 35.9249 47.6261 36.4583 46.9022C36.9917 46.1782 38.011 46.0237 38.7349 46.5571C39.4589 47.0904 39.6134 48.1097 39.08 48.8337Z" fill="#C5270E"/>
<path d="M37.5164 43.544C36.983 44.268 35.9638 44.4225 35.2398 43.8891C34.5158 43.3557 34.3613 42.3364 34.8947 41.6125C35.4281 40.8885 36.4474 40.734 37.1713 41.2674C37.8953 41.8008 38.0498 42.82 37.5164 43.544Z" fill="#C5270E"/>
<path d="M33.0114 51.2577C32.478 51.9816 31.4588 52.1361 30.7348 51.6028C30.0108 51.0694 29.8563 50.0501 30.3897 49.3262C30.9231 48.6022 31.9424 48.4477 32.6663 48.9811C33.3903 49.5145 33.5448 50.5337 33.0114 51.2577Z" fill="#C5270E"/>
<path d="M32.3768 46.1296C31.8434 46.8536 30.8241 47.0081 30.1002 46.4747C29.3762 45.9413 29.2217 44.9221 29.7551 44.1981C30.2884 43.4742 31.3077 43.3197 32.0317 43.853C32.7556 44.3864 32.9101 45.4057 32.3768 46.1296Z" fill="#C5270E"/>
<path d="M26.6497 52.1268C26.2496 52.6698 25.4852 52.7857 24.9422 52.3856C24.3992 51.9856 24.2834 51.2212 24.6834 50.6782C25.0834 50.1352 25.8479 50.0194 26.3908 50.4194C26.9338 50.8194 27.0497 51.5839 26.6497 52.1268Z" fill="#C5270E"/>
<path d="M54.2441 43.8105C44.3656 54.4466 34.9347 73.2525 25.1447 63.9447C15.3548 54.6368 33.6926 44.2992 43.5711 33.6631C53.4497 23.027 61.2011 19.5629 64.1484 22.3651C67.0957 25.1672 64.1226 33.1744 54.2441 43.8105Z" fill="#00162B" fill-opacity="0.2"/>
<path fill-rule="evenodd" clip-rule="evenodd" d="M32.8682 67.9578C29.793 68.7476 26.7617 67.9406 23.9321 65.2503C21.1016 62.5593 20.1323 59.5588 20.77 56.4212C21.3671 53.4835 23.3273 50.6872 25.6763 48.092C28.0535 45.4655 31.0456 42.8177 33.9832 40.2231L34.0878 40.1307C37.0249 37.5367 39.911 34.9876 42.2807 32.4362C47.2926 27.0399 51.8589 23.3565 55.6482 21.3819C57.5393 20.3964 59.3313 19.7867 60.9484 19.6657C62.5902 19.5429 64.1671 19.9242 65.3611 21.0594C66.556 22.1955 67.0277 23.7638 67.004 25.4281C66.9808 27.0662 66.4847 28.9093 65.6254 30.8749C63.9034 34.8133 60.5448 39.6429 55.5346 45.0374C53.2749 47.4704 51.0302 50.3526 48.74 53.2932C48.5926 53.4826 48.4449 53.6721 48.2971 53.8618C45.8814 56.9616 43.4072 60.1031 40.9127 62.6242C38.4462 65.1169 35.7603 67.215 32.8682 67.9578ZM47.3633 52.1661C49.6392 49.2436 51.9294 46.3027 54.2441 43.8105C64.1226 33.1744 67.0957 25.1672 64.1484 22.3651C61.2011 19.5629 53.4497 23.027 43.5711 33.6631C41.1409 36.2798 38.1986 38.8783 35.2891 41.448C26.3722 49.3233 17.7632 56.9267 25.1447 63.9447C32.6407 71.0715 39.9262 61.7162 47.3633 52.1661Z" fill="#00162B" fill-opacity="0.2"/>
<path d="M65.5787 54.1269C54.0934 62.9579 43.6139 80.4054 33.7857 67.3207C23.9576 54.2359 43.3788 48.693 54.8641 39.862C66.3495 31.031 72.4192 31.4017 75.3779 35.3408C78.3366 39.28 77.0641 45.296 65.5787 54.1269Z" fill="#00162B" fill-opacity="0.2"/>
<path fill-rule="evenodd" clip-rule="evenodd" d="M41.2389 73.8122C37.9953 73.7276 35.0451 71.9585 32.3758 68.4047C29.7066 64.851 28.812 61.5013 29.6001 58.3168C30.3597 55.2472 32.5925 52.7432 35.2216 50.6008C37.8703 48.4425 41.1835 46.4474 44.4411 44.4962C44.5203 44.4488 44.5995 44.4013 44.6787 44.3539C47.9045 42.4221 51.0856 40.517 53.7927 38.4355C59.6199 33.955 64.2921 31.6284 68.0484 31.0419C69.9548 30.7443 71.669 30.8884 73.1722 31.4702C74.6814 32.0542 75.8733 33.0392 76.7878 34.2568C77.7023 35.4743 78.3211 36.8999 78.4731 38.5275C78.6245 40.1487 78.3027 41.8582 77.5087 43.6369C75.9442 47.1415 72.4774 51.0729 66.6502 55.5534C63.9431 57.6349 61.277 60.2257 58.5735 62.8528L58.3743 63.0464C55.6439 65.6993 52.8567 68.3947 50.0921 70.3987C47.3478 72.3878 44.3654 73.8938 41.2389 73.8122ZM57.3814 61.5271C60.0579 58.926 62.7886 56.2722 65.5787 54.1269C77.0641 45.296 78.3366 39.28 75.3779 35.3408C72.4192 31.4017 66.3495 31.031 54.8641 39.862C52.074 42.0073 48.8156 43.9586 45.6219 45.871C35.669 51.8312 26.3451 57.4146 33.7857 67.3207C41.2263 77.2268 49.0403 69.6331 57.3814 61.5271Z" fill="#00162B" fill-opacity="0.2"/>
<path d="M52.4734 42.0189C42.5949 52.655 33.164 71.4609 23.374 62.1531C13.5841 52.8452 31.9219 42.5076 41.8004 31.8715C51.679 21.2354 59.4304 17.7713 62.3777 20.5734C65.325 23.3756 62.3519 31.3828 52.4734 42.0189Z" fill="#4CAA1F"/>
<path fill-rule="evenodd" clip-rule="evenodd" d="M31.0975 66.1661C28.0223 66.9559 24.9911 66.149 22.1614 63.4587C19.331 60.7676 18.3616 57.7671 18.9994 54.6296C19.5965 51.6918 21.5567 48.8956 23.9056 46.3003C26.2828 43.6738 29.2749 41.026 32.2126 38.4314L32.3172 38.339C35.2542 35.745 38.1403 33.196 40.51 30.6445C45.5219 25.2483 50.0883 21.5649 53.8775 19.5903C55.7687 18.6048 57.5607 17.995 59.1778 17.8741C60.8195 17.7513 62.3964 18.1326 63.5904 19.2678C64.7854 20.4039 65.257 21.9721 65.2334 23.6364C65.2101 25.2745 64.7141 27.1177 63.8547 29.0832C62.1328 33.0216 58.7742 37.8513 53.7639 43.2458C51.5043 45.6787 49.2595 48.561 46.9694 51.5016C46.8219 51.6909 46.6743 51.8805 46.5264 52.0702C44.1107 55.1699 41.6366 58.3114 39.142 60.8325C36.6756 63.3252 33.9896 65.4233 31.0975 66.1661ZM45.5926 50.3745C47.8686 47.4519 50.1587 44.5111 52.4734 42.0189C62.352 31.3827 65.325 23.3755 62.3777 20.5734C59.4305 17.7713 51.679 21.2354 41.8005 31.8715C39.3702 34.4881 36.4279 37.0867 33.5185 39.6563C24.6016 47.5317 15.9926 55.135 23.3741 62.153C30.8701 69.2799 38.1555 59.9245 45.5926 50.3745Z" fill="#2B710A"/>
<path fill-rule="evenodd" clip-rule="evenodd" d="M44.1148 43.0074C46.1623 40.3308 48.2225 37.6375 50.3264 35.3722C56.3351 28.9028 59.4363 23.4115 59.9473 19.6466C60.9482 19.6805 61.7664 19.9921 62.3778 20.5734C65.325 23.3755 62.352 31.3827 52.4735 42.0189C50.1587 44.5111 47.8686 47.4519 45.5926 50.3745C38.1556 59.9245 30.8701 69.2799 23.3741 62.153C19.8444 58.7971 19.9711 55.3074 22.0394 51.718C22.4123 52.2095 22.8555 52.7017 23.3741 53.1947C30.8701 60.3216 37.4242 51.7536 44.1148 43.0074Z" fill="#419C15"/>
<path d="M52.0992 24.7395C53.3439 26.7903 46.0751 36.3854 38.3751 42.6562C33.6198 46.5288 25.0938 53.4062 24.7746 50.4513C23.7744 49.2777 33.6499 40.6941 37.9324 37.2813C47.2293 29.8726 50.2449 23.2069 52.0992 24.7395Z" fill="#5FCF2A"/>
<path fill-rule="evenodd" clip-rule="evenodd" d="M34.1313 42.9185C34.4771 43.2684 34.4771 43.8356 34.1313 44.1854C32.7927 45.5398 31.6773 46.4155 30.3182 47.4825C29.8323 47.8639 29.3154 48.2698 28.7459 48.7307C28.3641 49.0398 27.8069 48.9771 27.5014 48.5908C27.1959 48.2045 27.2578 47.6407 27.6397 47.3316C28.2571 46.8319 28.7991 46.4064 29.2958 46.0163C30.6212 44.9756 31.6247 44.1877 32.8791 42.9185C33.2249 42.5687 33.7855 42.5687 34.1313 42.9185Z" fill="#A0EA29"/>
<path d="M64.1442 52.4569C52.6588 61.2879 42.1793 78.7354 32.3512 65.6506C22.523 52.5659 41.9442 47.023 53.4296 38.192C64.9149 29.361 70.9846 29.7316 73.9433 33.6708C76.9021 37.6099 75.6295 43.6259 64.1442 52.4569Z" fill="#58C923"/>
<path fill-rule="evenodd" clip-rule="evenodd" d="M39.8043 72.1422C36.5607 72.0576 33.6105 70.2885 30.9413 66.7347C28.272 63.181 27.3774 59.8313 28.1655 56.6468C28.9251 53.5772 31.1579 51.0732 33.7871 48.9308C36.4358 46.7725 39.7489 44.7773 43.0065 42.8262C43.0857 42.7787 43.1649 42.7313 43.2441 42.6839C46.4699 40.7521 49.651 38.847 52.3581 36.7655C58.1854 32.285 62.8576 29.9584 66.6139 29.3719C68.5203 29.0742 70.2344 29.2184 71.7376 29.8001C73.2468 30.3842 74.4388 31.3692 75.3532 32.5867C76.2677 33.8042 76.8865 35.2299 77.0385 36.8575C77.19 38.4787 76.8682 40.1882 76.0742 41.9669C74.5097 45.4715 71.0428 49.4029 65.2156 53.8834C62.5085 55.9649 59.8425 58.5556 57.139 61.1828L56.9398 61.3763C54.2094 64.0293 51.4222 66.7247 48.6575 68.7287C45.9133 70.7178 42.9308 72.2237 39.8043 72.1422ZM55.9468 59.857C58.6233 57.256 61.354 54.6022 64.1442 52.4569C75.6295 43.6259 76.9021 37.6099 73.9433 33.6708C70.9846 29.7316 64.9149 29.361 53.4296 38.192C50.6395 40.3373 47.381 42.2886 44.1874 44.201C34.2345 50.1611 24.9106 55.7446 32.3512 65.6507C39.7918 75.5567 47.6057 67.963 55.9468 59.857Z" fill="#2B710A"/>
<path fill-rule="evenodd" clip-rule="evenodd" d="M54.176 56.2738C56.8525 53.6727 59.5832 51.0189 62.3734 48.8736C71.2571 42.043 74.0307 36.8966 73.4623 33.0927C73.6311 33.2755 73.7913 33.4684 73.9434 33.6709C76.9021 37.61 75.6296 43.626 64.1442 52.457C61.3541 54.6023 58.6233 57.2561 55.9469 59.8571C47.6058 67.9631 39.7918 75.5568 32.3512 65.6507C31.1843 64.0972 30.4298 62.65 30.0253 61.2909C30.1988 61.5468 30.3837 61.8056 30.5804 62.0674C38.021 71.9735 45.8349 64.3798 54.176 56.2738Z" fill="#4CAA1F"/>
<path d="M61.4795 38.8139C62.7241 40.8646 46.3439 52.5104 46.3439 52.5104C46.3439 52.5104 32.8581 60.5832 31.858 59.4097C30.8578 58.2361 37.0094 52.0187 41.9168 49.617C54.8388 43.293 59.6252 37.2813 61.4795 38.8139Z" fill="#79E645"/>
<path fill-rule="evenodd" clip-rule="evenodd" d="M47.5482 48.4794C47.8401 48.8764 47.7587 49.4376 47.3663 49.7329C46.2627 50.5635 44.3012 51.698 42.3922 52.8021C42.2478 52.8856 42.1037 52.9689 41.9603 53.0519C39.8551 54.2707 37.9216 55.4092 37.0518 56.1481C36.6773 56.4662 36.1188 56.417 35.8044 56.0381C35.4899 55.6591 35.5386 55.0941 35.9131 54.7759C36.936 53.907 39.0478 52.6738 41.0809 51.4968C41.2069 51.4239 41.3327 51.3511 41.4582 51.2785C43.4227 50.1418 45.2963 49.0578 46.3094 48.2953C46.7017 48 47.2564 48.0824 47.5482 48.4794Z" fill="white"/>
<path d="M47.0324 44.8585C47.0324 45.4976 46.5204 46.0157 45.8888 46.0157C45.2572 46.0157 44.7451 45.4976 44.7451 44.8585C44.7451 44.2195 45.2572 43.7014 45.8888 43.7014C46.5204 43.7014 47.0324 44.2195 47.0324 44.8585Z" fill="#47A21D"/>
<path d="M54.6568 41.7728C54.6568 42.4119 54.1448 42.93 53.5132 42.93C52.8815 42.93 52.3695 42.4119 52.3695 41.7728C52.3695 41.1338 52.8815 40.6157 53.5132 40.6157C54.1448 40.6157 54.6568 41.1338 54.6568 41.7728Z" fill="#47A21D"/>
<path d="M59.2315 37.1444C59.2315 37.7835 58.7195 38.3015 58.0879 38.3015C57.4562 38.3015 56.9442 37.7835 56.9442 37.1444C56.9442 36.5054 57.4562 35.9873 58.0879 35.9873C58.7195 35.9873 59.2315 36.5054 59.2315 37.1444Z" fill="#47A21D"/>
<path d="M40.1705 51.0298C40.1705 51.6689 39.6585 52.1869 39.0268 52.1869C38.3952 52.1869 37.8832 51.6689 37.8832 51.0298C37.8832 50.3907 38.3952 49.8727 39.0268 49.8727C39.6585 49.8727 40.1705 50.3907 40.1705 51.0298Z" fill="#47A21D"/>
<path d="M50.8447 42.1586C50.8447 42.5846 50.5034 42.93 50.0823 42.93C49.6612 42.93 49.3198 42.5846 49.3198 42.1586C49.3198 41.7325 49.6612 41.3871 50.0823 41.3871C50.5034 41.3871 50.8447 41.7325 50.8447 42.1586Z" fill="#47A21D"/>
<path d="M49.3198 46.0157C49.3198 46.4417 48.9784 46.7871 48.5574 46.7871C48.1363 46.7871 47.7949 46.4417 47.7949 46.0157C47.7949 45.5896 48.1363 45.2443 48.5574 45.2443C48.9784 45.2443 49.3198 45.5896 49.3198 46.0157Z" fill="#47A21D"/>
<path d="M56.1817 38.3015C56.1817 38.7275 55.8404 39.0729 55.4193 39.0729C54.9982 39.0729 54.6569 38.7275 54.6569 38.3015C54.6569 37.8755 54.9982 37.5301 55.4193 37.5301C55.8404 37.5301 56.1817 37.8755 56.1817 38.3015Z" fill="#47A21D"/>
<path d="M62.2812 35.2159C62.2812 35.6419 61.9399 35.9873 61.5188 35.9873C61.0977 35.9873 60.7563 35.6419 60.7563 35.2159C60.7563 34.7898 61.0977 34.4445 61.5188 34.4445C61.9399 34.4445 62.2812 34.7898 62.2812 35.2159Z" fill="#47A21D"/>
<path d="M36.3583 52.1869C36.3583 52.613 36.0169 52.9584 35.5958 52.9584C35.1747 52.9584 34.8334 52.613 34.8334 52.1869C34.8334 51.7609 35.1747 51.4155 35.5958 51.4155C36.0169 51.4155 36.3583 51.7609 36.3583 52.1869Z" fill="#47A21D"/>
<path d="M41.6953 48.3299C41.6953 48.7559 41.3539 49.1013 40.9329 49.1013C40.5118 49.1013 40.1704 48.7559 40.1704 48.3299C40.1704 47.9038 40.5118 47.5585 40.9329 47.5585C41.3539 47.5585 41.6953 47.9038 41.6953 48.3299Z" fill="#47A21D"/>
<path d="M45.5075 47.5584C45.5075 48.4105 44.8248 49.1013 43.9826 49.1013C43.1405 49.1013 42.4578 48.4105 42.4578 47.5584C42.4578 46.7064 43.1405 46.0156 43.9826 46.0156C44.8248 46.0156 45.5075 46.7064 45.5075 47.5584Z" fill="#47A21D"/>
<path d="M51.6564 57.8854C51.6564 58.6276 51.0618 59.2292 50.3282 59.2292C49.5947 59.2292 49.0001 58.6276 49.0001 57.8854C49.0001 57.1433 49.5947 56.5417 50.3282 56.5417C51.0618 56.5417 51.6564 57.1433 51.6564 57.8854Z" fill="#79E745"/>
<path d="M46.3439 66.8438C46.3439 67.5859 45.7493 68.1875 45.0157 68.1875C44.2822 68.1875 43.6876 67.5859 43.6876 66.8438C43.6876 66.1016 44.2822 65.5 45.0157 65.5C45.7493 65.5 46.3439 66.1016 46.3439 66.8438Z" fill="#79E745"/>
<path d="M60.5105 53.4062C60.5105 54.1484 59.9159 54.75 59.1824 54.75C58.4489 54.75 57.8542 54.1484 57.8542 53.4062C57.8542 52.6641 58.4489 52.0625 59.1824 52.0625C59.9159 52.0625 60.5105 52.6641 60.5105 53.4062Z" fill="#79E745"/>
<path d="M70.2501 45.3438C70.2501 46.0859 69.6555 46.6875 68.922 46.6875C68.1885 46.6875 67.5939 46.0859 67.5939 45.3438C67.5939 44.6016 68.1885 44 68.922 44C69.6555 44 70.2501 44.6016 70.2501 45.3438Z" fill="#79E745"/>
<path d="M54.3126 59.2291C54.3126 59.7239 53.9162 60.125 53.4272 60.125C52.9382 60.125 52.5417 59.7239 52.5417 59.2291C52.5417 58.7344 52.9382 58.3333 53.4272 58.3333C53.9162 58.3333 54.3126 58.7344 54.3126 59.2291Z" fill="#79E745"/>
<path d="M63.1668 51.1666C63.1668 51.6614 62.7704 52.0625 62.2814 52.0625C61.7924 52.0625 61.396 51.6614 61.396 51.1666C61.396 50.6719 61.7924 50.2708 62.2814 50.2708C62.7704 50.2708 63.1668 50.6719 63.1668 51.1666Z" fill="#79E745"/>
<path d="M57.8543 55.6459C57.8543 56.6354 57.0615 57.4375 56.0835 57.4375C55.1055 57.4375 54.3126 56.6354 54.3126 55.6459C54.3126 54.6563 55.1055 53.8542 56.0835 53.8542C57.0615 53.8542 57.8543 54.6563 57.8543 55.6459Z" fill="#79E745"/>
<path d="M65.823 48.4792C65.823 49.4687 65.0302 50.2708 64.0522 50.2708C63.0742 50.2708 62.2814 49.4687 62.2814 48.4792C62.2814 47.4897 63.0742 46.6875 64.0522 46.6875C65.0302 46.6875 65.823 47.4897 65.823 48.4792Z" fill="#79E745"/>
<path d="M49.8855 62.8125C49.8855 63.802 49.0927 64.6041 48.1147 64.6041C47.1367 64.6041 46.3439 63.802 46.3439 62.8125C46.3439 61.823 47.1367 61.0208 48.1147 61.0208C49.0927 61.0208 49.8855 61.823 49.8855 62.8125Z" fill="#79E745"/>
</svg>
