<svg width="96" height="96" viewBox="0 0 96 96" fill="none" xmlns="http://www.w3.org/2000/svg">
<path d="M65.1392 83.125C65.1392 85.3063 57.4563 87.0747 47.979 87.0747C38.5017 87.0747 30.8188 85.3063 30.8188 83.125C30.8188 80.9436 38.5017 79.1753 47.979 79.1753C57.4563 79.1753 65.1392 80.9436 65.1392 83.125Z" fill="#A0D6ED"/>
<path fill-rule="evenodd" clip-rule="evenodd" d="M60.5617 87.8669C57.2701 88.6245 52.8225 89.0747 47.979 89.0747C43.1355 89.0747 38.6879 88.6245 35.3963 87.8669C33.7666 87.4917 32.3096 87.0167 31.2114 86.4191C30.6634 86.1209 30.1103 85.7419 29.6728 85.2498C29.2243 84.7454 28.8188 84.0261 28.8188 83.125C28.8188 82.2239 29.2243 81.5045 29.6728 81.0001C30.1103 80.508 30.6634 80.1291 31.2114 79.8308C32.3096 79.2332 33.7666 78.7582 35.3963 78.3831C38.6879 77.6255 43.1355 77.1753 47.979 77.1753C52.8225 77.1753 57.2701 77.6255 60.5617 78.3831C62.1914 78.7582 63.6484 79.2332 64.7466 79.8308C65.2946 80.1291 65.8477 80.508 66.2852 81.0001C66.7337 81.5045 67.1392 82.2239 67.1392 83.125C67.1392 84.0261 66.7337 84.7454 66.2852 85.2498C65.8477 85.7419 65.2946 86.1209 64.7466 86.4191C63.6484 87.0167 62.1914 87.4917 60.5617 87.8669ZM47.979 87.0747C57.4563 87.0747 65.1392 85.3063 65.1392 83.125C65.1392 80.9436 57.4563 79.1753 47.979 79.1753C38.5017 79.1753 30.8188 80.9436 30.8188 83.125C30.8188 85.3063 38.5017 87.0747 47.979 87.0747Z" fill="#377894"/>
<path d="M51.7819 82.7579C51.7819 84.0029 47.3969 85.0122 41.9879 85.0122C36.5788 85.0122 32.1938 84.0029 32.1938 82.7579C32.1938 81.5129 36.5788 80.5037 41.9879 80.5037C47.3969 80.5037 51.7819 81.5129 51.7819 82.7579Z" fill="#D7F3FF"/>
<path d="M46.4375 47.0784C46.4375 46.2154 47.1371 45.5159 48 45.5159C48.8629 45.5159 49.5625 46.2154 49.5625 47.0784V80.5625C49.5625 81.4254 48.8629 82.125 48 82.125C47.1371 82.125 46.4375 81.4254 46.4375 80.5625V47.0784Z" fill="#A0D6ED"/>
<path fill-rule="evenodd" clip-rule="evenodd" d="M51.5625 47.0784V80.5625C51.5625 82.53 49.9675 84.125 48 84.125C46.0325 84.125 44.4375 82.53 44.4375 80.5625V47.0784C44.4375 45.1109 46.0325 43.5159 48 43.5159C49.9675 43.5159 51.5625 45.1109 51.5625 47.0784ZM48 45.5159C47.1371 45.5159 46.4375 46.2154 46.4375 47.0784V80.5625C46.4375 81.4254 47.1371 82.125 48 82.125C48.8629 82.125 49.5625 81.4254 49.5625 80.5625V47.0784C49.5625 46.2154 48.8629 45.5159 48 45.5159Z" fill="#649DB6"/>
<path fill-rule="evenodd" clip-rule="evenodd" d="M47.25 59.0625C47.8023 59.0625 48.25 59.5102 48.25 60.0625V69.4375C48.25 69.9898 47.8023 70.4375 47.25 70.4375C46.6977 70.4375 46.25 69.9898 46.25 69.4375V60.0625C46.25 59.5102 46.6977 59.0625 47.25 59.0625Z" fill="#C8EFFF"/>
<path d="M30.736 13.2499H65.1933L69.4705 38.4767C70.8267 43.9412 67.4705 47.9323 62.1128 50.7237C57.1404 53.3144 53.5804 53.8161 47.9647 53.8161C42.3489 53.8161 38.8249 53.2441 33.8165 50.7237C30.2115 48.9096 25.0767 45.3162 26.4588 38.4767L30.736 13.2499Z" fill="#BBE9FD"/>
<path fill-rule="evenodd" clip-rule="evenodd" d="M28.7642 12.9156C28.9272 11.9537 29.7605 11.2499 30.736 11.2499H65.1933C66.1689 11.2499 67.0021 11.9537 67.1652 12.9156L71.4303 38.0711C72.2172 41.3244 71.6078 44.235 69.9788 46.704C68.3829 49.1228 65.8812 51.0155 63.037 52.4974C57.69 55.2832 53.7837 55.8161 47.9647 55.8161C42.12 55.8161 38.2707 55.2041 32.9175 52.5102C31.0159 51.5533 28.5258 50.042 26.6971 47.7232C24.8121 45.333 23.6862 42.1464 24.492 38.1125L28.7642 12.9156ZM26.4588 38.4767C25.0767 45.3162 30.2115 48.9096 33.8165 50.7237C38.8249 53.2441 42.349 53.8161 47.9647 53.8161C53.5804 53.8161 57.1404 53.3144 62.1129 50.7237C67.4705 47.9323 70.8267 43.9412 69.4705 38.4767L65.1933 13.2499H30.736L26.4588 38.4767Z" fill="#6BB3D1"/>
<path d="M47.9647 53.8161C53.5804 53.8161 57.1404 53.3144 62.1128 50.7237C67.4705 47.9323 70.8267 43.9412 69.4705 38.4767L68.0133 29.882H27.916L26.4588 38.4767C25.0767 45.3162 30.2115 48.9096 33.8165 50.7237C38.8249 53.2441 42.3489 53.8161 47.9647 53.8161Z" fill="#99130C"/>
<path fill-rule="evenodd" clip-rule="evenodd" d="M68.0133 29.882L69.4705 38.4767C70.8267 43.9412 67.4705 47.9323 62.1129 50.7237C57.1404 53.3144 53.5804 53.8161 47.9647 53.8161C42.349 53.8161 38.8249 53.2441 33.8165 50.7237C30.2115 48.9096 25.0767 45.3162 26.4588 38.4767L27.9161 29.882H68.0133ZM24.492 38.1125C23.6862 42.1464 24.8121 45.333 26.6971 47.7232C28.5258 50.042 31.0159 51.5533 32.9175 52.5102C38.2707 55.2042 42.12 55.8161 47.9647 55.8161C53.7837 55.8161 57.69 55.2832 63.037 52.4974C65.8812 51.0155 68.3829 49.1228 69.9788 46.704C71.6078 44.235 72.2172 41.3244 71.4303 38.0711L69.9852 29.5476C69.8221 28.5858 68.9889 27.882 68.0133 27.882H27.9161C26.9405 27.882 26.1073 28.5858 25.9442 29.5476L24.492 38.1125Z" fill="#5B0501"/>
<path d="M40.6876 45.394C40.6876 48.9568 37.6563 49.7824 34.3126 48.894C30.9688 48.0056 28.0625 44.9565 27.7188 41.7064C27.3751 38.4562 28.5 35.2063 31.8751 35.9565C35.2501 36.7067 40.6876 41.8312 40.6876 45.394Z" fill="#780A04"/>
<path d="M65.1392 12.875C65.1392 15.0563 57.4563 16.8247 47.979 16.8247C38.5017 16.8247 30.8188 15.0563 30.8188 12.875C30.8188 10.6936 38.5017 8.92529 47.979 8.92529C57.4563 8.92529 65.1392 10.6936 65.1392 12.875Z" fill="#D7F3FF"/>
<path fill-rule="evenodd" clip-rule="evenodd" d="M60.5617 17.6169C57.2701 18.3745 52.8225 18.8247 47.979 18.8247C43.1355 18.8247 38.6879 18.3745 35.3963 17.6169C33.7666 17.2417 32.3096 16.7667 31.2114 16.1691C30.6634 15.8709 30.1103 15.4919 29.6728 14.9998C29.2243 14.4954 28.8188 13.7761 28.8188 12.875C28.8188 11.9739 29.2243 11.2545 29.6728 10.7501C30.1103 10.258 30.6634 9.87907 31.2114 9.58084C32.3096 8.98322 33.7666 8.5082 35.3963 8.13309C38.6879 7.37548 43.1355 6.92529 47.979 6.92529C52.8225 6.92529 57.2701 7.37548 60.5617 8.13309C62.1914 8.5082 63.6484 8.98322 64.7466 9.58084C65.2946 9.87907 65.8477 10.258 66.2852 10.7501C66.7337 11.2545 67.1392 11.9739 67.1392 12.875C67.1392 13.7761 66.7337 14.4954 66.2852 14.9998C65.8477 15.4919 65.2946 15.8709 64.7466 16.1691C63.6484 16.7667 62.1914 17.2417 60.5617 17.6169ZM47.979 16.8247C57.4563 16.8247 65.1392 15.0563 65.1392 12.875C65.1392 10.6936 57.4563 8.92529 47.979 8.92529C38.5017 8.92529 30.8188 10.6936 30.8188 12.875C30.8188 15.0563 38.5017 16.8247 47.979 16.8247Z" fill="#6BB3D1"/>
<path fill-rule="evenodd" clip-rule="evenodd" d="M48.0001 10.797C48.0087 10.2448 48.4633 9.80406 49.0155 9.81262C55.5965 9.91465 60.0178 11.5522 61.5165 12.4562C61.9894 12.7415 62.1415 13.3561 61.8563 13.829C61.571 14.3019 60.9564 14.454 60.4835 14.1688C59.3573 13.4895 55.3035 11.9104 48.9845 11.8124C48.4323 11.8038 47.9916 11.3492 48.0001 10.797Z" fill="white"/>
<path d="M65.3267 40.5662C65.3267 41.9469 64.2074 43.0662 62.8267 43.0662C61.4459 43.0662 60.3267 41.9469 60.3267 40.5662C60.3267 39.1855 61.4459 38.0662 62.8267 38.0662C64.2074 38.0662 65.3267 39.1855 65.3267 40.5662Z" fill="#E3160C"/>
<path d="M61.5142 46.4724C61.5142 47.4562 60.7167 48.2537 59.7329 48.2537C58.7492 48.2537 57.9517 47.4562 57.9517 46.4724C57.9517 45.4887 58.7492 44.6912 59.7329 44.6912C60.7167 44.6912 61.5142 45.4887 61.5142 46.4724Z" fill="#E3160C"/>
<path d="M56.6704 45.988C56.6704 46.7345 56.0653 47.3396 55.3188 47.3396C54.5724 47.3396 53.9673 46.7345 53.9673 45.988C53.9673 45.2416 54.5724 44.6365 55.3188 44.6365C56.0653 44.6365 56.6704 45.2416 56.6704 45.988Z" fill="#E3160C"/>
<path d="M61.6782 35.8474C61.6782 36.5939 61.0731 37.199 60.3267 37.199C59.5802 37.199 58.9751 36.5939 58.9751 35.8474C58.9751 35.101 59.5802 34.4958 60.3267 34.4958C61.0731 34.4958 61.6782 35.101 61.6782 35.8474Z" fill="#E3160C"/>
<path d="M62.3892 31.4802C62.3892 31.9246 62.0289 32.2849 61.5845 32.2849C61.1401 32.2849 60.7798 31.9246 60.7798 31.4802C60.7798 31.0358 61.1401 30.6755 61.5845 30.6755C62.0289 30.6755 62.3892 31.0358 62.3892 31.4802Z" fill="#E3160C"/>
<path d="M66.1313 29.2612C66.1313 29.7056 65.7711 30.0659 65.3267 30.0659C64.8822 30.0659 64.522 29.7056 64.522 29.2612C64.522 28.8168 64.8822 28.4565 65.3267 28.4565C65.7711 28.4565 66.1313 28.8168 66.1313 29.2612Z" fill="#E3160C"/>
<path d="M53.5063 48.4646C53.5063 48.909 53.1461 49.2693 52.7017 49.2693C52.2572 49.2693 51.897 48.909 51.897 48.4646C51.897 48.0202 52.2572 47.6599 52.7017 47.6599C53.1461 47.6599 53.5063 48.0202 53.5063 48.4646Z" fill="#E3160C"/>
<path d="M49.6094 50.9958C49.6094 51.4403 49.2491 51.8005 48.8047 51.8005C48.3603 51.8005 48 51.4403 48 50.9958C48 50.5514 48.3603 50.1912 48.8047 50.1912C49.2491 50.1912 49.6094 50.5514 49.6094 50.9958Z" fill="#E3160C"/>
<path d="M53.9673 43.0662C53.9673 43.5106 53.607 43.8708 53.1626 43.8708C52.7182 43.8708 52.3579 43.5106 52.3579 43.0662C52.3579 42.6217 52.7182 42.2615 53.1626 42.2615C53.607 42.2615 53.9673 42.6217 53.9673 43.0662Z" fill="#E3160C"/>
<path d="M57.3579 36.0502C57.3579 36.4946 56.9976 36.8549 56.5532 36.8549C56.1088 36.8549 55.7485 36.4946 55.7485 36.0502C55.7485 35.6058 56.1088 35.2455 56.5532 35.2455C56.9976 35.2455 57.3579 35.6058 57.3579 36.0502Z" fill="#E3160C"/>
<path d="M58.4517 40.5662C58.4517 41.5499 57.6542 42.3474 56.6704 42.3474C55.6867 42.3474 54.8892 41.5499 54.8892 40.5662C54.8892 39.5824 55.6867 38.7849 56.6704 38.7849C57.6542 38.7849 58.4517 39.5824 58.4517 40.5662Z" fill="#E3160C"/>
<path d="M67.1079 34.0662C67.1079 35.0499 66.3104 35.8474 65.3267 35.8474C64.3429 35.8474 63.5454 35.0499 63.5454 34.0662C63.5454 33.0824 64.3429 32.2849 65.3267 32.2849C66.3104 32.2849 67.1079 33.0824 67.1079 34.0662Z" fill="#E3160C"/>
<path d="M68.5767 39.3005C68.5767 39.8097 68.1639 40.2224 67.6548 40.2224C67.1456 40.2224 66.7329 39.8097 66.7329 39.3005C66.7329 38.7914 67.1456 38.3787 67.6548 38.3787C68.1639 38.3787 68.5767 38.7914 68.5767 39.3005Z" fill="#E3160C"/>
<path d="M65.3267 45.0662C65.3267 45.5753 64.9139 45.988 64.4048 45.988C63.8956 45.988 63.4829 45.5753 63.4829 45.0662C63.4829 44.557 63.8956 44.1443 64.4048 44.1443C64.9139 44.1443 65.3267 44.557 65.3267 45.0662Z" fill="#E3160C"/>
<path d="M56.6704 50.1912C56.6704 50.7003 56.2577 51.113 55.7485 51.113C55.2394 51.113 54.8267 50.7003 54.8267 50.1912C54.8267 49.682 55.2394 49.2693 55.7485 49.2693C56.2577 49.2693 56.6704 49.682 56.6704 50.1912Z" fill="#E3160C"/>
<path d="M68 29.9938C68 32.5341 59.0527 34.5935 48.0156 34.5935C36.9786 34.5935 28.0312 32.5341 28.0312 29.9938C28.0312 27.4534 36.9786 25.394 48.0156 25.394C59.0527 25.394 68 27.4534 68 29.9938Z" fill="#C12F28"/>
<path fill-rule="evenodd" clip-rule="evenodd" d="M62.5953 35.1953C58.7927 36.0705 53.639 36.5935 48.0156 36.5935C42.3923 36.5935 37.2386 36.0705 33.4359 35.1953C31.5507 34.7614 29.8869 34.2163 28.6458 33.5409C28.0263 33.2038 27.4177 32.784 26.9426 32.2496C26.4565 31.7029 26.0312 30.9398 26.0312 29.9938C26.0312 29.0478 26.4565 28.2846 26.9426 27.7379C27.4177 27.2035 28.0263 26.7837 28.6458 26.4466C29.8869 25.7712 31.5507 25.2262 33.4359 24.7922C37.2386 23.917 42.3923 23.394 48.0156 23.394C53.639 23.394 58.7927 23.917 62.5953 24.7922C64.4806 25.2262 66.1444 25.7712 67.3855 26.4466C68.005 26.7837 68.6136 27.2035 69.0887 27.7379C69.5748 28.2846 70 29.0478 70 29.9938C70 30.9398 69.5748 31.7029 69.0887 32.2496C68.6136 32.784 68.005 33.2038 67.3855 33.5409C66.1444 34.2163 64.4806 34.7614 62.5953 35.1953ZM48.0156 34.5935C59.0527 34.5935 68 32.5341 68 29.9938C68 27.4534 59.0527 25.394 48.0156 25.394C36.9786 25.394 28.0312 27.4534 28.0312 29.9938C28.0312 32.5341 36.9786 34.5935 48.0156 34.5935Z" fill="#6C0905"/>
<path d="M52.7812 30.6756C52.7812 32.1414 47.6185 33.3297 41.25 33.3297C34.8815 33.3297 29.7188 32.1414 29.7188 30.6756C29.7188 29.2098 34.8815 28.0215 41.25 28.0215C47.6185 28.0215 52.7812 29.2098 52.7812 30.6756Z" fill="#A91A13"/>
<path fill-rule="evenodd" clip-rule="evenodd" d="M51.7532 27.5459C51.7969 26.9953 52.2786 26.5844 52.8292 26.6281C55.9711 26.8775 61.1575 27.5083 64.3222 28.8269C64.832 29.0393 65.073 29.6248 64.8606 30.1346C64.6482 30.6444 64.0627 30.8855 63.5529 30.6731C60.7176 29.4917 55.829 28.8725 52.6709 28.6219C52.1204 28.5782 51.7095 28.0964 51.7532 27.5459Z" fill="#F93F35"/>
<path fill-rule="evenodd" clip-rule="evenodd" d="M30.4683 36.2116C31.0073 36.3322 31.3465 36.8668 31.226 37.4057L31.2249 37.4106L31.2209 37.4286L31.205 37.5019C31.1912 37.5665 31.1712 37.6614 31.1471 37.7803C31.0988 38.0184 31.0344 38.3507 30.9701 38.727C30.8386 39.4969 30.7188 40.3871 30.7188 41.0312C30.7187 42.3278 31.0336 43.5699 32.0161 44.6342C32.3907 45.04 32.3654 45.6727 31.9595 46.0473C31.5537 46.4219 30.9211 46.3966 30.5465 45.9908C29.1289 44.4551 28.7187 42.6721 28.7188 41.0312C28.7188 40.2066 28.8646 39.1749 28.9987 38.3902C29.0672 37.9891 29.1357 37.6359 29.187 37.3828C29.2127 37.256 29.2342 37.1539 29.2494 37.0829L29.2673 37.0004L29.2722 36.9781L29.274 36.9701C29.274 36.97 29.2742 36.9692 30.25 37.1875L29.274 36.9701C29.3945 36.4312 29.9294 36.091 30.4683 36.2116Z" fill="#E8291F"/>
<path fill-rule="evenodd" clip-rule="evenodd" d="M33.4851 18.4525C34.0291 18.5478 34.3928 19.066 34.2975 19.61L32.7975 28.1725C32.7022 28.7165 32.184 29.0803 31.64 28.985C31.096 28.8897 30.7322 28.3714 30.8275 27.8274L32.3275 19.2649C32.4228 18.7209 32.9411 18.3572 33.4851 18.4525Z" fill="white"/>
</svg>
